<svg class="rich-terminal" viewBox="0 0 1970 1221.1999999999998" xmlns="http://www.w3.org/2000/svg">
    <!-- Generated with Rich https://www.textualize.io -->
    <style>

    @font-face {
        font-family: "Fira Code";
        src: local("FiraCode-Regular"),
                url("https://cdnjs.cloudflare.com/ajax/libs/firacode/6.2.0/woff2/FiraCode-Regular.woff2") format("woff2"),
                url("https://cdnjs.cloudflare.com/ajax/libs/firacode/6.2.0/woff/FiraCode-Regular.woff") format("woff");
        font-style: normal;
        font-weight: 400;
    }
    @font-face {
        font-family: "Fira Code";
        src: local("FiraCode-Bold"),
                url("https://cdnjs.cloudflare.com/ajax/libs/firacode/6.2.0/woff2/FiraCode-Bold.woff2") format("woff2"),
                url("https://cdnjs.cloudflare.com/ajax/libs/firacode/6.2.0/woff/FiraCode-Bold.woff") format("woff");
        font-style: bold;
        font-weight: 700;
    }

    .terminal-2102512713-matrix {
        font-family: Fira Code, monospace;
        font-size: 20px;
        line-height: 24.4px;
        font-variant-east-asian: full-width;
    }

    .terminal-2102512713-title {
        font-size: 18px;
        font-weight: bold;
        font-family: arial;
    }

    .terminal-2102512713-r1 { fill: #4a7c59 }
.terminal-2102512713-r2 { fill: #c5c8c6 }
.terminal-2102512713-r3 { fill: #e8e4df }
.terminal-2102512713-r4 { fill: #222222 }
.terminal-2102512713-r5 { fill: #7b7b7b }
.terminal-2102512713-r6 { fill: #a6a6a6 }
    </style>

    <defs>
    <clipPath id="terminal-2102512713-clip-terminal">
      <rect x="0" y="0" width="1951.0" height="1170.1999999999998" />
    </clipPath>
    <clipPath id="terminal-2102512713-line-0">
    <rect x="0" y="1.5" width="1952" height="24.65"/>
            </clipPath>
<clipPath id="terminal-2102512713-line-1">
    <rect x="0" y="25.9" width="1952" height="24.65"/>
            </clipPath>
<clipPath id="terminal-2102512713-line-2">
    <rect x="0" y="50.3" width="1952" height="24.65"/>
            </clipPath>
<clipPath id="terminal-2102512713-line-3">
    <rect x="0" y="74.7" width="1952" height="24.65"/>
            </clipPath>
<clipPath id="terminal-2102512713-line-4">
    <rect x="0" y="99.1" width="1952" height="24.65"/>
            </clipPath>
<clipPath id="terminal-2102512713-line-5">
    <rect x="0" y="123.5" width="1952" height="24.65"/>
            </clipPath>
<clipPath id="terminal-2102512713-line-6">
    <rect x="0" y="147.9" width="1952" height="24.65"/>
            </clipPath>
<clipPath id="terminal-2102512713-line-7">
    <rect x="0" y="172.3" width="1952" height="24.65"/>
            </clipPath>
<clipPath id="terminal-2102512713-line-8">
    <rect x="0" y="196.7" width="1952" height="24.65"/>
            </clipPath>
<clipPath id="terminal-2102512713-line-9">
    <rect x="0" y="221.1" width="1952" height="24.65"/>
            </clipPath>
<clipPath id="terminal-2102512713-line-10">
    <rect x="0" y="245.5" width="1952" height="24.65"/>
            </clipPath>
<clipPath id="terminal-2102512713-line-11">
    <rect x="0" y="269.9" width="1952" height="24.65"/>
            </clipPath>
<clipPath id="terminal-2102512713-line-12">
    <rect x="0" y="294.3" width="1952" height="24.65"/>
            </clipPath>
<clipPath id="terminal-2102512713-line-13">
    <rect x="0" y="318.7" width="1952" height="24.65"/>
            </clipPath>
<clipPath id="terminal-2102512713-line-14">
    <rect x="0" y="343.1" width="1952" height="24.65"/>
            </clipPath>
<clipPath id="terminal-2102512713-line-15">
    <rect x="0" y="367.5" width="1952" height="24.65"/>
            </clipPath>
<clipPath id="terminal-2102512713-line-16">
    <rect x="0" y="391.9" width="1952" height="24.65"/>
            </clipPath>
<clipPath id="terminal-2102512713-line-17">
    <rect x="0" y="416.3" width="1952" height="24.65"/>
            </clipPath>
<clipPath id="terminal-2102512713-line-18">
    <rect x="0" y="440.7" width="1952" height="24.65"/>
            </clipPath>
<clipPath id="terminal-2102512713-line-19">
    <rect x="0" y="465.1" width="1952" height="24.65"/>
            </clipPath>
<clipPath id="terminal-2102512713-line-20">
    <rect x="0" y="489.5" width="1952" height="24.65"/>
            </clipPath>
<clipPath id="terminal-2102512713-line-21">
    <rect x="0" y="513.9" width="1952" height="24.65"/>
            </clipPath>
<clipPath id="terminal-2102512713-line-22">
    <rect x="0" y="538.3" width="1952" height="24.65"/>
            </clipPath>
<clipPath id="terminal-2102512713-line-23">
    <rect x="0" y="562.7" width="1952" height="24.65"/>
            </clipPath>
<clipPath id="terminal-2102512713-line-24">
    <rect x="0" y="587.1" width="1952" height="24.65"/>
            </clipPath>
<clipPath id="terminal-2102512713-line-25">
    <rect x="0" y="611.5" width="1952" height="24.65"/>
            </clipPath>
<clipPath id="terminal-2102512713-line-26">
    <rect x="0" y="635.9" width="1952" height="24.65"/>
            </clipPath>
<clipPath id="terminal-2102512713-line-27">
    <rect x="0" y="660.3" width="1952" height="24.65"/>
            </clipPath>
<clipPath id="terminal-2102512713-line-28">
    <rect x="0" y="684.7" width="1952" height="24.65"/>
            </clipPath>
<clipPath id="terminal-2102512713-line-29">
    <rect x="0" y="709.1" width="1952" height="24.65"/>
            </clipPath>
<clipPath id="terminal-2102512713-line-30">
    <rect x="0" y="733.5" width="1952" height="24.65"/>
            </clipPath>
<clipPath id="terminal-2102512713-line-31">
    <rect x="0" y="757.9" width="1952" height="24.65"/>
            </clipPath>
<clipPath id="terminal-2102512713-line-32">
    <rect x="0" y="782.3" width="1952" height="24.65"/>
            </clipPath>
<clipPath id="terminal-2102512713-line-33">
    <rect x="0" y="806.7" width="1952" height="24.65"/>
            </clipPath>
<clipPath id="terminal-2102512713-line-34">
    <rect x="0" y="831.1" width="1952" height="24.65"/>
            </clipPath>
<clipPath id="terminal-2102512713-line-35">
    <rect x="0" y="855.5" width="1952" height="24.65"/>
            </clipPath>
<clipPath id="terminal-2102512713-line-36">
    <rect x="0" y="879.9" width="1952" height="24.65"/>
            </clipPath>
<clipPath id="terminal-2102512713-line-37">
    <rect x="0" y="904.3" width="1952" height="24.65"/>
            </clipPath>
<clipPath id="terminal-2102512713-line-38">
    <rect x="0" y="928.7" width="1952" height="24.65"/>
            </clipPath>
<clipPath id="terminal-2102512713-line-39">
    <rect x="0" y="953.1" width="1952" height="24.65"/>
            </clipPath>
<clipPath id="terminal-2102512713-line-40">
    <rect x="0" y="977.5" width="1952" height="24.65"/>
            </clipPath>
<clipPath id="terminal-2102512713-line-41">
    <rect x="0" y="1001.9" width="1952" height="24.65"/>
            </clipPath>
<clipPath id="terminal-2102512713-line-42">
    <rect x="0" y="1026.3" width="1952" height="24.65"/>
            </clipPath>
<clipPath id="terminal-2102512713-line-43">
    <rect x="0" y="1050.7" width="1952" height="24.65"/>
            </clipPath>
<clipPath id="terminal-2102512713-line-44">
    <rect x="0" y="1075.1" width="1952" height="24.65"/>
            </clipPath>
<clipPath id="terminal-2102512713-line-45">
    <rect x="0" y="1099.5" width="1952" height="24.65"/>
            </clipPath>
<clipPath id="terminal-2102512713-line-46">
    <rect x="0" y="1123.9" width="1952" height="24.65"/>
            </clipPath>
    </defs>

    <rect fill="#292929" stroke="rgba(255,255,255,0.35)" stroke-width="1" x="1" y="1" width="1968" height="1219.2" rx="8"/><text class="terminal-2102512713-title" fill="#c5c8c6" text-anchor="middle" x="984" y="27">GKL&#160;—&#160;Fantasy&#160;Baseball&#160;Command&#160;Center</text>
            <g transform="translate(26,22)">
            <circle cx="0" cy="0" r="7" fill="#ff5f57"/>
            <circle cx="22" cy="0" r="7" fill="#febc2e"/>
            <circle cx="44" cy="0" r="7" fill="#28c840"/>
            </g>
        
    <g transform="translate(9, 41)" clip-path="url(#terminal-2102512713-clip-terminal)">
    <rect fill="#222222" x="0" y="1.5" width="12.2" height="24.65" shape-rendering="crispEdges"/><rect fill="#222222" x="12.2" y="1.5" width="707.6" height="24.65" shape-rendering="crispEdges"/><rect fill="#222222" x="719.8" y="1.5" width="12.2" height="24.65" shape-rendering="crispEdges"/><rect fill="#181818" x="732" y="1.5" width="1220" height="24.65" shape-rendering="crispEdges"/><rect fill="#222222" x="0" y="25.9" width="12.2" height="24.65" shape-rendering="crispEdges"/><rect fill="#222222" x="12.2" y="25.9" width="707.6" height="24.65" shape-rendering="crispEdges"/><rect fill="#222222" x="719.8" y="25.9" width="12.2" height="24.65" shape-rendering="crispEdges"/><rect fill="#181818" x="732" y="25.9" width="1220" height="24.65" shape-rendering="crispEdges"/><rect fill="#222222" x="0" y="50.3" width="12.2" height="24.65" shape-rendering="crispEdges"/><rect fill="#222222" x="12.2" y="50.3" width="24.4" height="24.65" shape-rendering="crispEdges"/><rect fill="#222222" x="36.6" y="50.3" width="244" height="24.65" shape-rendering="crispEdges"/><rect fill="#222222" x="280.6" y="50.3" width="414.8" height="24.65" shape-rendering="crispEdges"/><rect fill="#222222" x="695.4" y="50.3" width="24.4" height="24.65" shape-rendering="crispEdges"/><rect fill="#222222" x="719.8" y="50.3" width="12.2" height="24.65" shape-rendering="crispEdges"/><rect fill="#181818" x="732" y="50.3" width="1220" height="24.65" shape-rendering="crispEdges"/><rect fill="#222222" x="0" y="74.7" width="12.2" height="24.65" shape-rendering="crispEdges"/><rect fill="#222222" x="12.2" y="74.7" width="24.4" height="24.65" shape-rendering="crispEdges"/><rect fill="#4a7c59" x="36.6" y="74.7" width="12.2" height="24.65" shape-rendering="crispEdges"/><rect fill="#2b2b2b" x="48.8" y="74.7" width="634.4" height="24.65" shape-rendering="crispEdges"/><rect fill="#222222" x="683.2" y="74.7" width="12.2" height="24.65" shape-rendering="crispEdges"/><rect fill="#222222" x="695.4" y="74.7" width="24.4" height="24.65" shape-rendering="crispEdges"/><rect fill="#222222" x="719.8" y="74.7" width="12.2" height="24.65" shape-rendering="crispEdges"/><rect fill="#181818" x="732" y="74.7" width="1220" height="24.65" shape-rendering="crispEdges"/><rect fill="#222222" x="0" y="99.1" width="12.2" height="24.65" shape-rendering="crispEdges"/><rect fill="#222222" x="12.2" y="99.1" width="24.4" height="24.65" shape-rendering="crispEdges"/><rect fill="#4a7c59" x="36.6" y="99.1" width="12.2" height="24.65" shape-rendering="crispEdges"/><rect fill="#2b2b2b" x="48.8" y="99.1" width="24.4" height="24.65" shape-rendering="crispEdges"/><rect fill="#2b2b2b" x="73.2" y="99.1" width="170.8" height="24.65" shape-rendering="crispEdges"/><rect fill="#2b2b2b" x="244" y="99.1" width="414.8" height="24.65" shape-rendering="crispEdges"/><rect fill="#2b2b2b" x="658.8" y="99.1" width="24.4" height="24.65" shape-rendering="crispEdges"/><rect fill="#222222" x="683.2" y="99.1" width="12.2" height="24.65" shape-rendering="crispEdges"/><rect fill="#222222" x="695.4" y="99.1" width="24.4" height="24.65" shape-rendering="crispEdges"/><rect fill="#222222" x="719.8" y="99.1" width="12.2" height="24.65" shape-rendering="crispEdges"/><rect fill="#181818" x="732" y="99.1" width="1220" height="24.65" shape-rendering="crispEdges"/><rect fill="#222222" x="0" y="123.5" width="12.2" height="24.65" shape-rendering="crispEdges"/><rect fill="#222222" x="12.2" y="123.5" width="24.4" height="24.65" shape-rendering="crispEdges"/><rect fill="#4a7c59" x="36.6" y="123.5" width="12.2" height="24.65" shape-rendering="crispEdges"/><rect fill="#2b2b2b" x="48.8" y="123.5" width="634.4" height="24.65" shape-rendering="crispEdges"/><rect fill="#222222" x="683.2" y="123.5" width="12.2" height="24.65" shape-rendering="crispEdges"/><rect fill="#222222" x="695.4" y="123.5" width="24.4" height="24.65" shape-rendering="crispEdges"/><rect fill="#222222" x="719.8" y="123.5" width="12.2" height="24.65" shape-rendering="crispEdges"/><rect fill="#181818" x="732" y="123.5" width="1220" height="24.65" shape-rendering="crispEdges"/><rect fill="#222222" x="0" y="147.9" width="12.2" height="24.65" shape-rendering="crispEdges"/><rect fill="#222222" x="12.2" y="147.9" width="24.4" height="24.65" shape-rendering="crispEdges"/><rect fill="#222222" x="36.6" y="147.9" width="658.8" height="24.65" shape-rendering="crispEdges"/><rect fill="#222222" x="695.4" y="147.9" width="24.4" height="24.65" shape-rendering="crispEdges"/><rect fill="#222222" x="719.8" y="147.9" width="12.2" height="24.65" shape-rendering="crispEdges"/><rect fill="#181818" x="732" y="147.9" width="1220" height="24.65" shape-rendering="crispEdges"/><rect fill="#222222" x="0" y="172.3" width="12.2" height="24.65" shape-rendering="crispEdges"/><rect fill="#222222" x="12.2" y="172.3" width="24.4" height="24.65" shape-rendering="crispEdges"/><rect fill="#222222" x="36.6" y="172.3" width="658.8" height="24.65" shape-rendering="crispEdges"/><rect fill="#222222" x="695.4" y="172.3" width="24.4" height="24.65" shape-rendering="crispEdges"/><rect fill="#222222" x="719.8" y="172.3" width="12.2" height="24.65" shape-rendering="crispEdges"/><rect fill="#181818" x="732" y="172.3" width="1220" height="24.65" shape-rendering="crispEdges"/><rect fill="#222222" x="0" y="196.7" width="12.2" height="24.65" shape-rendering="crispEdges"/><rect fill="#222222" x="12.2" y="196.7" width="24.4" height="24.65" shape-rendering="crispEdges"/><rect fill="#222222" x="36.6" y="196.7" width="658.8" height="24.65" shape-rendering="crispEdges"/><rect fill="#222222" x="695.4" y="196.7" width="24.4" height="24.65" shape-rendering="crispEdges"/><rect fill="#222222" x="719.8" y="196.7" width="12.2" height="24.65" shape-rendering="crispEdges"/><rect fill="#181818" x="732" y="196.7" width="1220" height="24.65" shape-rendering="crispEdges"/><rect fill="#222222" x="0" y="221.1" width="12.2" height="24.65" shape-rendering="crispEdges"/><rect fill="#222222" x="12.2" y="221.1" width="24.4" height="24.65" shape-rendering="crispEdges"/><rect fill="#222222" x="36.6" y="221.1" width="658.8" height="24.65" shape-rendering="crispEdges"/><rect fill="#222222" x="695.4" y="221.1" width="24.4" height="24.65" shape-rendering="crispEdges"/><rect fill="#222222" x="719.8" y="221.1" width="12.2" height="24.65" shape-rendering="crispEdges"/><rect fill="#181818" x="732" y="221.1" width="1220" height="24.65" shape-rendering="crispEdges"/><rect fill="#222222" x="0" y="245.5" width="12.2" height="24.65" shape-rendering="crispEdges"/><rect fill="#222222" x="12.2" y="245.5" width="24.4" height="24.65" shape-rendering="crispEdges"/><rect fill="#222222" x="36.6" y="245.5" width="658.8" height="24.65" shape-rendering="crispEdges"/><rect fill="#222222" x="695.4" y="245.5" width="24.4" height="24.65" shape-rendering="crispEdges"/><rect fill="#222222" x="719.8" y="245.5" width="12.2" height="24.65" shape-rendering="crispEdges"/><rect fill="#181818" x="732" y="245.5" width="1220" height="24.65" shape-rendering="crispEdges"/><rect fill="#222222" x="0" y="269.9" width="12.2" height="24.65" shape-rendering="crispEdges"/><rect fill="#222222" x="12.2" y="269.9" width="24.4" height="24.65" shape-rendering="crispEdges"/><rect fill="#222222" x="36.6" y="269.9" width="658.8" height="24.65" shape-rendering="crispEdges"/><rect fill="#222222" x="695.4" y="269.9" width="24.4" height="24.65" shape-rendering="crispEdges"/><rect fill="#222222" x="719.8" y="269.9" width="12.2" height="24.65" shape-rendering="crispEdges"/><rect fill="#181818" x="732" y="269.9" width="1220" height="24.65" shape-rendering="crispEdges"/><rect fill="#222222" x="0" y="294.3" width="12.2" height="24.65" shape-rendering="crispEdges"/><rect fill="#222222" x="12.2" y="294.3" width="24.4" height="24.65" shape-rendering="crispEdges"/><rect fill="#222222" x="36.6" y="294.3" width="658.8" height="24.65" shape-rendering="crispEdges"/><rect fill="#222222" x="695.4" y="294.3" width="24.4" height="24.65" shape-rendering="crispEdges"/><rect fill="#222222" x="719.8" y="294.3" width="12.2" height="24.65" shape-rendering="crispEdges"/><rect fill="#181818" x="732" y="294.3" width="1220" height="24.65" shape-rendering="crispEdges"/><rect fill="#222222" x="0" y="318.7" width="12.2" height="24.65" shape-rendering="crispEdges"/><rect fill="#222222" x="12.2" y="318.7" width="24.4" height="24.65" shape-rendering="crispEdges"/><rect fill="#222222" x="36.6" y="318.7" width="658.8" height="24.65" shape-rendering="crispEdges"/><rect fill="#222222" x="695.4" y="318.7" width="24.4" height="24.65" shape-rendering="crispEdges"/><rect fill="#222222" x="719.8" y="318.7" width="12.2" height="24.65" shape-rendering="crispEdges"/><rect fill="#181818" x="732" y="318.7" width="1220" height="24.65" shape-rendering="crispEdges"/><rect fill="#222222" x="0" y="343.1" width="12.2" height="24.65" shape-rendering="crispEdges"/><rect fill="#222222" x="12.2" y="343.1" width="24.4" height="24.65" shape-rendering="crispEdges"/><rect fill="#222222" x="36.6" y="343.1" width="658.8" height="24.65" shape-rendering="crispEdges"/><rect fill="#222222" x="695.4" y="343.1" width="24.4" height="24.65" shape-rendering="crispEdges"/><rect fill="#222222" x="719.8" y="343.1" width="12.2" height="24.65" shape-rendering="crispEdges"/><rect fill="#181818" x="732" y="343.1" width="1220" height="24.65" shape-rendering="crispEdges"/><rect fill="#222222" x="0" y="367.5" width="12.2" height="24.65" shape-rendering="crispEdges"/><rect fill="#222222" x="12.2" y="367.5" width="24.4" height="24.65" shape-rendering="crispEdges"/><rect fill="#222222" x="36.6" y="367.5" width="658.8" height="24.65" shape-rendering="crispEdges"/><rect fill="#222222" x="695.4" y="367.5" width="24.4" height="24.65" shape-rendering="crispEdges"/><rect fill="#222222" x="719.8" y="367.5" width="12.2" height="24.65" shape-rendering="crispEdges"/><rect fill="#181818" x="732" y="367.5" width="1220" height="24.65" shape-rendering="crispEdges"/><rect fill="#222222" x="0" y="391.9" width="12.2" height="24.65" shape-rendering="crispEdges"/><rect fill="#222222" x="12.2" y="391.9" width="24.4" height="24.65" shape-rendering="crispEdges"/><rect fill="#222222" x="36.6" y="391.9" width="658.8" height="24.65" shape-rendering="crispEdges"/><rect fill="#222222" x="695.4" y="391.9" width="24.4" height="24.65" shape-rendering="crispEdges"/><rect fill="#222222" x="719.8" y="391.9" width="12.2" height="24.65" shape-rendering="crispEdges"/><rect fill="#181818" x="732" y="391.9" width="1220" height="24.65" shape-rendering="crispEdges"/><rect fill="#222222" x="0" y="416.3" width="12.2" height="24.65" shape-rendering="crispEdges"/><rect fill="#222222" x="12.2" y="416.3" width="24.4" height="24.65" shape-rendering="crispEdges"/><rect fill="#222222" x="36.6" y="416.3" width="658.8" height="24.65" shape-rendering="crispEdges"/><rect fill="#222222" x="695.4" y="416.3" width="24.4" height="24.65" shape-rendering="crispEdges"/><rect fill="#222222" x="719.8" y="416.3" width="12.2" height="24.65" shape-rendering="crispEdges"/><rect fill="#181818" x="732" y="416.3" width="1220" height="24.65" shape-rendering="crispEdges"/><rect fill="#222222" x="0" y="440.7" width="12.2" height="24.65" shape-rendering="crispEdges"/><rect fill="#222222" x="12.2" y="440.7" width="24.4" height="24.65" shape-rendering="crispEdges"/><rect fill="#222222" x="36.6" y="440.7" width="658.8" height="24.65" shape-rendering="crispEdges"/><rect fill="#222222" x="695.4" y="440.7" width="24.4" height="24.65" shape-rendering="crispEdges"/><rect fill="#222222" x="719.8" y="440.7" width="12.2" height="24.65" shape-rendering="crispEdges"/><rect fill="#181818" x="732" y="440.7" width="1220" height="24.65" shape-rendering="crispEdges"/><rect fill="#222222" x="0" y="465.1" width="12.2" height="24.65" shape-rendering="crispEdges"/><rect fill="#222222" x="12.2" y="465.1" width="24.4" height="24.65" shape-rendering="crispEdges"/><rect fill="#222222" x="36.6" y="465.1" width="658.8" height="24.65" shape-rendering="crispEdges"/><rect fill="#222222" x="695.4" y="465.1" width="24.4" height="24.65" shape-rendering="crispEdges"/><rect fill="#222222" x="719.8" y="465.1" width="12.2" height="24.65" shape-rendering="crispEdges"/><rect fill="#181818" x="732" y="465.1" width="1220" height="24.65" shape-rendering="crispEdges"/><rect fill="#222222" x="0" y="489.5" width="12.2" height="24.65" shape-rendering="crispEdges"/><rect fill="#222222" x="12.2" y="489.5" width="24.4" height="24.65" shape-rendering="crispEdges"/><rect fill="#222222" x="36.6" y="489.5" width="597.8" height="24.65" shape-rendering="crispEdges"/><rect fill="#222222" x="634.4" y="489.5" width="61" height="24.65" shape-rendering="crispEdges"/><rect fill="#222222" x="695.4" y="489.5" width="24.4" height="24.65" shape-rendering="crispEdges"/><rect fill="#222222" x="719.8" y="489.5" width="12.2" height="24.65" shape-rendering="crispEdges"/><rect fill="#181818" x="732" y="489.5" width="1220" height="24.65" shape-rendering="crispEdges"/><rect fill="#222222" x="0" y="513.9" width="12.2" height="24.65" shape-rendering="crispEdges"/><rect fill="#222222" x="12.2" y="513.9" width="24.4" height="24.65" shape-rendering="crispEdges"/><rect fill="#222222" x="36.6" y="513.9" width="97.6" height="24.65" shape-rendering="crispEdges"/><rect fill="#222222" x="134.2" y="513.9" width="561.2" height="24.65" shape-rendering="crispEdges"/><rect fill="#222222" x="695.4" y="513.9" width="24.4" height="24.65" shape-rendering="crispEdges"/><rect fill="#222222" x="719.8" y="513.9" width="12.2" height="24.65" shape-rendering="crispEdges"/><rect fill="#181818" x="732" y="513.9" width="1220" height="24.65" shape-rendering="crispEdges"/><rect fill="#222222" x="0" y="538.3" width="12.2" height="24.65" shape-rendering="crispEdges"/><rect fill="#222222" x="12.2" y="538.3" width="24.4" height="24.65" shape-rendering="crispEdges"/><rect fill="#222222" x="36.6" y="538.3" width="597.8" height="24.65" shape-rendering="crispEdges"/><rect fill="#222222" x="634.4" y="538.3" width="61" height="24.65" shape-rendering="crispEdges"/><rect fill="#222222" x="695.4" y="538.3" width="24.4" height="24.65" shape-rendering="crispEdges"/><rect fill="#222222" x="719.8" y="538.3" width="12.2" height="24.65" shape-rendering="crispEdges"/><rect fill="#181818" x="732" y="538.3" width="1220" height="24.65" shape-rendering="crispEdges"/><rect fill="#222222" x="0" y="562.7" width="12.2" height="24.65" shape-rendering="crispEdges"/><rect fill="#222222" x="12.2" y="562.7" width="24.4" height="24.65" shape-rendering="crispEdges"/><rect fill="#222222" x="36.6" y="562.7" width="73.2" height="24.65" shape-rendering="crispEdges"/><rect fill="#222222" x="109.8" y="562.7" width="585.6" height="24.65" shape-rendering="crispEdges"/><rect fill="#222222" x="695.4" y="562.7" width="24.4" height="24.65" shape-rendering="crispEdges"/><rect fill="#222222" x="719.8" y="562.7" width="12.2" height="24.65" shape-rendering="crispEdges"/><rect fill="#181818" x="732" y="562.7" width="1220" height="24.65" shape-rendering="crispEdges"/><rect fill="#222222" x="0" y="587.1" width="12.2" height="24.65" shape-rendering="crispEdges"/><rect fill="#222222" x="12.2" y="587.1" width="24.4" height="24.65" shape-rendering="crispEdges"/><rect fill="#222222" x="36.6" y="587.1" width="573.4" height="24.65" shape-rendering="crispEdges"/><rect fill="#222222" x="610" y="587.1" width="85.4" height="24.65" shape-rendering="crispEdges"/><rect fill="#222222" x="695.4" y="587.1" width="24.4" height="24.65" shape-rendering="crispEdges"/><rect fill="#222222" x="719.8" y="587.1" width="12.2" height="24.65" shape-rendering="crispEdges"/><rect fill="#181818" x="732" y="587.1" width="1220" height="24.65" shape-rendering="crispEdges"/><rect fill="#222222" x="0" y="611.5" width="12.2" height="24.65" shape-rendering="crispEdges"/><rect fill="#222222" x="12.2" y="611.5" width="24.4" height="24.65" shape-rendering="crispEdges"/><rect fill="#222222" x="36.6" y="611.5" width="122" height="24.65" shape-rendering="crispEdges"/><rect fill="#222222" x="158.6" y="611.5" width="536.8" height="24.65" shape-rendering="crispEdges"/><rect fill="#222222" x="695.4" y="611.5" width="24.4" height="24.65" shape-rendering="crispEdges"/><rect fill="#222222" x="719.8" y="611.5" width="12.2" height="24.65" shape-rendering="crispEdges"/><rect fill="#181818" x="732" y="611.5" width="1220" height="24.65" shape-rendering="crispEdges"/><rect fill="#222222" x="0" y="635.9" width="12.2" height="24.65" shape-rendering="crispEdges"/><rect fill="#222222" x="12.2" y="635.9" width="707.6" height="24.65" shape-rendering="crispEdges"/><rect fill="#222222" x="719.8" y="635.9" width="12.2" height="24.65" shape-rendering="crispEdges"/><rect fill="#181818" x="732" y="635.9" width="1220" height="24.65" shape-rendering="crispEdges"/><rect fill="#222222" x="0" y="660.3" width="12.2" height="24.65" shape-rendering="crispEdges"/><rect fill="#222222" x="12.2" y="660.3" width="707.6" height="24.65" shape-rendering="crispEdges"/><rect fill="#222222" x="719.8" y="660.3" width="12.2" height="24.65" shape-rendering="crispEdges"/><rect fill="#181818" x="732" y="660.3" width="1220" height="24.65" shape-rendering="crispEdges"/><rect fill="#181818" x="0" y="684.7" width="1952" height="24.65" shape-rendering="crispEdges"/><rect fill="#181818" x="0" y="709.1" width="1952" height="24.65" shape-rendering="crispEdges"/><rect fill="#181818" x="0" y="733.5" width="1952" height="24.65" shape-rendering="crispEdges"/><rect fill="#181818" x="0" y="757.9" width="1952" height="24.65" shape-rendering="crispEdges"/><rect fill="#181818" x="0" y="782.3" width="1952" height="24.65" shape-rendering="crispEdges"/><rect fill="#181818" x="0" y="806.7" width="1952" height="24.65" shape-rendering="crispEdges"/><rect fill="#181818" x="0" y="831.1" width="1952" height="24.65" shape-rendering="crispEdges"/><rect fill="#181818" x="0" y="855.5" width="1952" height="24.65" shape-rendering="crispEdges"/><rect fill="#181818" x="0" y="879.9" width="1952" height="24.65" shape-rendering="crispEdges"/><rect fill="#181818" x="0" y="904.3" width="1952" height="24.65" shape-rendering="crispEdges"/><rect fill="#181818" x="0" y="928.7" width="1952" height="24.65" shape-rendering="crispEdges"/><rect fill="#181818" x="0" y="953.1" width="1952" height="24.65" shape-rendering="crispEdges"/><rect fill="#181818" x="0" y="977.5" width="1952" height="24.65" shape-rendering="crispEdges"/><rect fill="#181818" x="0" y="1001.9" width="1952" height="24.65" shape-rendering="crispEdges"/><rect fill="#181818" x="0" y="1026.3" width="1952" height="24.65" shape-rendering="crispEdges"/><rect fill="#181818" x="0" y="1050.7" width="1952" height="24.65" shape-rendering="crispEdges"/><rect fill="#181818" x="0" y="1075.1" width="1952" height="24.65" shape-rendering="crispEdges"/><rect fill="#181818" x="0" y="1099.5" width="1952" height="24.65" shape-rendering="crispEdges"/><rect fill="#181818" x="0" y="1123.9" width="1952" height="24.65" shape-rendering="crispEdges"/><rect fill="#181818" x="0" y="1148.3" width="1952" height="24.65" shape-rendering="crispEdges"/>
    <g class="terminal-2102512713-matrix">
    <text class="terminal-2102512713-r1" x="0" y="20" textLength="12.2" clip-path="url(#terminal-2102512713-line-0)">┌</text><text class="terminal-2102512713-r1" x="12.2" y="20" textLength="707.6" clip-path="url(#terminal-2102512713-line-0)">──────────────────────────────────────────────────────────</text><text class="terminal-2102512713-r1" x="719.8" y="20" textLength="12.2" clip-path="url(#terminal-2102512713-line-0)">┐</text><text class="terminal-2102512713-r2" x="1952" y="20" textLength="12.2" clip-path="url(#terminal-2102512713-line-0)">
</text><text class="terminal-2102512713-r1" x="0" y="44.4" textLength="12.2" clip-path="url(#terminal-2102512713-line-1)">│</text><text class="terminal-2102512713-r1" x="719.8" y="44.4" textLength="12.2" clip-path="url(#terminal-2102512713-line-1)">│</text><text class="terminal-2102512713-r2" x="1952" y="44.4" textLength="12.2" clip-path="url(#terminal-2102512713-line-1)">
</text><text class="terminal-2102512713-r1" x="0" y="68.8" textLength="12.2" clip-path="url(#terminal-2102512713-line-2)">│</text><text class="terminal-2102512713-r3" x="36.6" y="68.8" textLength="244" clip-path="url(#terminal-2102512713-line-2)">Search&#160;for&#160;a&#160;player:</text><text class="terminal-2102512713-r1" x="719.8" y="68.8" textLength="12.2" clip-path="url(#terminal-2102512713-line-2)">│</text><text class="terminal-2102512713-r2" x="1952" y="68.8" textLength="12.2" clip-path="url(#terminal-2102512713-line-2)">
</text><text class="terminal-2102512713-r1" x="0" y="93.2" textLength="12.2" clip-path="url(#terminal-2102512713-line-3)">│</text><text class="terminal-2102512713-r4" x="36.6" y="93.2" textLength="12.2" clip-path="url(#terminal-2102512713-line-3)">▊</text><text class="terminal-2102512713-r1" x="48.8" y="93.2" textLength="634.4" clip-path="url(#terminal-2102512713-line-3)">▔▔▔▔▔▔▔▔▔▔▔▔▔▔▔▔▔▔▔▔▔▔▔▔▔▔▔▔▔▔▔▔▔▔▔▔▔▔▔▔▔▔▔▔▔▔▔▔▔▔▔▔</text><text class="terminal-2102512713-r1" x="683.2" y="93.2" textLength="12.2" clip-path="url(#terminal-2102512713-line-3)">▎</text><text class="terminal-2102512713-r1" x="719.8" y="93.2" textLength="12.2" clip-path="url(#terminal-2102512713-line-3)">│</text><text class="terminal-2102512713-r2" x="1952" y="93.2" textLength="12.2" clip-path="url(#terminal-2102512713-line-3)">
</text><text class="terminal-2102512713-r1" x="0" y="117.6" textLength="12.2" clip-path="url(#terminal-2102512713-line-4)">│</text><text class="terminal-2102512713-r4" x="36.6" y="117.6" textLength="12.2" clip-path="url(#terminal-2102512713-line-4)">▊</text><text class="terminal-2102512713-r5" x="73.2" y="117.6" textLength="170.8" clip-path="url(#terminal-2102512713-line-4)">Player&#160;name...</text><text class="terminal-2102512713-r1" x="683.2" y="117.6" textLength="12.2" clip-path="url(#terminal-2102512713-line-4)">▎</text><text class="terminal-2102512713-r1" x="719.8" y="117.6" textLength="12.2" clip-path="url(#terminal-2102512713-line-4)">│</text><text class="terminal-2102512713-r2" x="1952" y="117.6" textLength="12.2" clip-path="url(#terminal-2102512713-line-4)">
</text><text class="terminal-2102512713-r1" x="0" y="142" textLength="12.2" clip-path="url(#terminal-2102512713-line-5)">│</text><text class="terminal-2102512713-r4" x="36.6" y="142" textLength="12.2" clip-path="url(#terminal-2102512713-line-5)">▊</text><text class="terminal-2102512713-r1" x="48.8" y="142" textLength="634.4" clip-path="url(#terminal-2102512713-line-5)">▁▁▁▁▁▁▁▁▁▁▁▁▁▁▁▁▁▁▁▁▁▁▁▁▁▁▁▁▁▁▁▁▁▁▁▁▁▁▁▁▁▁▁▁▁▁▁▁▁▁▁▁</text><text class="terminal-2102512713-r1" x="683.2" y="142" textLength="12.2" clip-path="url(#terminal-2102512713-line-5)">▎</text><text class="terminal-2102512713-r1" x="719.8" y="142" textLength="12.2" clip-path="url(#terminal-2102512713-line-5)">│</text><text class="terminal-2102512713-r2" x="1952" y="142" textLength="12.2" clip-path="url(#terminal-2102512713-line-5)">
</text><text class="terminal-2102512713-r1" x="0" y="166.4" textLength="12.2" clip-path="url(#terminal-2102512713-line-6)">│</text><text class="terminal-2102512713-r1" x="719.8" y="166.4" textLength="12.2" clip-path="url(#terminal-2102512713-line-6)">│</text><text class="terminal-2102512713-r2" x="1952" y="166.4" textLength="12.2" clip-path="url(#terminal-2102512713-line-6)">
</text><text class="terminal-2102512713-r1" x="0" y="190.8" textLength="12.2" clip-path="url(#terminal-2102512713-line-7)">│</text><text class="terminal-2102512713-r1" x="719.8" y="190.8" textLength="12.2" clip-path="url(#terminal-2102512713-line-7)">│</text><text class="terminal-2102512713-r2" x="1952" y="190.8" textLength="12.2" clip-path="url(#terminal-2102512713-line-7)">
</text><text class="terminal-2102512713-r1" x="0" y="215.2" textLength="12.2" clip-path="url(#terminal-2102512713-line-8)">│</text><text class="terminal-2102512713-r1" x="719.8" y="215.2" textLength="12.2" clip-path="url(#terminal-2102512713-line-8)">│</text><text class="terminal-2102512713-r2" x="1952" y="215.2" textLength="12.2" clip-path="url(#terminal-2102512713-line-8)">
</text><text class="terminal-2102512713-r1" x="0" y="239.6" textLength="12.2" clip-path="url(#terminal-2102512713-line-9)">│</text><text class="terminal-2102512713-r1" x="719.8" y="239.6" textLength="12.2" clip-path="url(#terminal-2102512713-line-9)">│</text><text class="terminal-2102512713-r2" x="1952" y="239.6" textLength="12.2" clip-path="url(#terminal-2102512713-line-9)">
</text><text class="terminal-2102512713-r1" x="0" y="264" textLength="12.2" clip-path="url(#terminal-2102512713-line-10)">│</text><text class="terminal-2102512713-r1" x="719.8" y="264" textLength="12.2" clip-path="url(#terminal-2102512713-line-10)">│</text><text class="terminal-2102512713-r2" x="1952" y="264" textLength="12.2" clip-path="url(#terminal-2102512713-line-10)">
</text><text class="terminal-2102512713-r1" x="0" y="288.4" textLength="12.2" clip-path="url(#terminal-2102512713-line-11)">│</text><text class="terminal-2102512713-r1" x="719.8" y="288.4" textLength="12.2" clip-path="url(#terminal-2102512713-line-11)">│</text><text class="terminal-2102512713-r2" x="1952" y="288.4" textLength="12.2" clip-path="url(#terminal-2102512713-line-11)">
</text><text class="terminal-2102512713-r1" x="0" y="312.8" textLength="12.2" clip-path="url(#terminal-2102512713-line-12)">│</text><text class="terminal-2102512713-r1" x="719.8" y="312.8" textLength="12.2" clip-path="url(#terminal-2102512713-line-12)">│</text><text class="terminal-2102512713-r2" x="1952" y="312.8" textLength="12.2" clip-path="url(#terminal-2102512713-line-12)">
</text><text class="terminal-2102512713-r1" x="0" y="337.2" textLength="12.2" clip-path="url(#terminal-2102512713-line-13)">│</text><text class="terminal-2102512713-r1" x="719.8" y="337.2" textLength="12.2" clip-path="url(#terminal-2102512713-line-13)">│</text><text class="terminal-2102512713-r2" x="1952" y="337.2" textLength="12.2" clip-path="url(#terminal-2102512713-line-13)">
</text><text class="terminal-2102512713-r1" x="0" y="361.6" textLength="12.2" clip-path="url(#terminal-2102512713-line-14)">│</text><text class="terminal-2102512713-r1" x="719.8" y="361.6" textLength="12.2" clip-path="url(#terminal-2102512713-line-14)">│</text><text class="terminal-2102512713-r2" x="1952" y="361.6" textLength="12.2" clip-path="url(#terminal-2102512713-line-14)">
</text><text class="terminal-2102512713-r1" x="0" y="386" textLength="12.2" clip-path="url(#terminal-2102512713-line-15)">│</text><text class="terminal-2102512713-r1" x="719.8" y="386" textLength="12.2" clip-path="url(#terminal-2102512713-line-15)">│</text><text class="terminal-2102512713-r2" x="1952" y="386" textLength="12.2" clip-path="url(#terminal-2102512713-line-15)">
</text><text class="terminal-2102512713-r1" x="0" y="410.4" textLength="12.2" clip-path="url(#terminal-2102512713-line-16)">│</text><text class="terminal-2102512713-r1" x="719.8" y="410.4" textLength="12.2" clip-path="url(#terminal-2102512713-line-16)">│</text><text class="terminal-2102512713-r2" x="1952" y="410.4" textLength="12.2" clip-path="url(#terminal-2102512713-line-16)">
</text><text class="terminal-2102512713-r1" x="0" y="434.8" textLength="12.2" clip-path="url(#terminal-2102512713-line-17)">│</text><text class="terminal-2102512713-r1" x="719.8" y="434.8" textLength="12.2" clip-path="url(#terminal-2102512713-line-17)">│</text><text class="terminal-2102512713-r2" x="1952" y="434.8" textLength="12.2" clip-path="url(#terminal-2102512713-line-17)">
</text><text class="terminal-2102512713-r1" x="0" y="459.2" textLength="12.2" clip-path="url(#terminal-2102512713-line-18)">│</text><text class="terminal-2102512713-r1" x="719.8" y="459.2" textLength="12.2" clip-path="url(#terminal-2102512713-line-18)">│</text><text class="terminal-2102512713-r2" x="1952" y="459.2" textLength="12.2" clip-path="url(#terminal-2102512713-line-18)">
</text><text class="terminal-2102512713-r1" x="0" y="483.6" textLength="12.2" clip-path="url(#terminal-2102512713-line-19)">│</text><text class="terminal-2102512713-r1" x="719.8" y="483.6" textLength="12.2" clip-path="url(#terminal-2102512713-line-19)">│</text><text class="terminal-2102512713-r2" x="1952" y="483.6" textLength="12.2" clip-path="url(#terminal-2102512713-line-19)">
</text><text class="terminal-2102512713-r1" x="0" y="508" textLength="12.2" clip-path="url(#terminal-2102512713-line-20)">│</text><text class="terminal-2102512713-r6" x="36.6" y="508" textLength="597.8" clip-path="url(#terminal-2102512713-line-20)">Roster&#160;data&#160;is&#160;synced&#160;daily&#160;from&#160;Yahoo&#160;and&#160;cached</text><text class="terminal-2102512713-r1" x="719.8" y="508" textLength="12.2" clip-path="url(#terminal-2102512713-line-20)">│</text><text class="terminal-2102512713-r2" x="1952" y="508" textLength="12.2" clip-path="url(#terminal-2102512713-line-20)">
</text><text class="terminal-2102512713-r1" x="0" y="532.4" textLength="12.2" clip-path="url(#terminal-2102512713-line-21)">│</text><text class="terminal-2102512713-r6" x="36.6" y="532.4" textLength="97.6" clip-path="url(#terminal-2102512713-line-21)">locally.</text><text class="terminal-2102512713-r1" x="719.8" y="532.4" textLength="12.2" clip-path="url(#terminal-2102512713-line-21)">│</text><text class="terminal-2102512713-r2" x="1952" y="532.4" textLength="12.2" clip-path="url(#terminal-2102512713-line-21)">
</text><text class="terminal-2102512713-r1" x="0" y="556.8" textLength="12.2" clip-path="url(#terminal-2102512713-line-22)">│</text><text class="terminal-2102512713-r6" x="36.6" y="556.8" textLength="597.8" clip-path="url(#terminal-2102512713-line-22)">The&#160;first&#160;search&#160;may&#160;take&#160;a&#160;few&#160;minutes&#160;while&#160;all</text><text class="terminal-2102512713-r1" x="719.8" y="556.8" textLength="12.2" clip-path="url(#terminal-2102512713-line-22)">│</text><text class="terminal-2102512713-r2" x="1952" y="556.8" textLength="12.2" clip-path="url(#terminal-2102512713-line-22)">
</text><text class="terminal-2102512713-r1" x="0" y="581.2" textLength="12.2" clip-path="url(#terminal-2102512713-line-23)">│</text><text class="terminal-2102512713-r6" x="36.6" y="581.2" textLength="73.2" clip-path="url(#terminal-2102512713-line-23)">roster</text><text class="terminal-2102512713-r1" x="719.8" y="581.2" textLength="12.2" clip-path="url(#terminal-2102512713-line-23)">│</text><text class="terminal-2102512713-r2" x="1952" y="581.2" textLength="12.2" clip-path="url(#terminal-2102512713-line-23)">
</text><text class="terminal-2102512713-r1" x="0" y="605.6" textLength="12.2" clip-path="url(#terminal-2102512713-line-24)">│</text><text class="terminal-2102512713-r6" x="36.6" y="605.6" textLength="573.4" clip-path="url(#terminal-2102512713-line-24)">history&#160;is&#160;downloaded.&#160;Subsequent&#160;searches&#160;load</text><text class="terminal-2102512713-r1" x="719.8" y="605.6" textLength="12.2" clip-path="url(#terminal-2102512713-line-24)">│</text><text class="terminal-2102512713-r2" x="1952" y="605.6" textLength="12.2" clip-path="url(#terminal-2102512713-line-24)">
</text><text class="terminal-2102512713-r1" x="0" y="630" textLength="12.2" clip-path="url(#terminal-2102512713-line-25)">│</text><text class="terminal-2102512713-r6" x="36.6" y="630" textLength="122" clip-path="url(#terminal-2102512713-line-25)">instantly.</text><text class="terminal-2102512713-r1" x="719.8" y="630" textLength="12.2" clip-path="url(#terminal-2102512713-line-25)">│</text><text class="terminal-2102512713-r2" x="1952" y="630" textLength="12.2" clip-path="url(#terminal-2102512713-line-25)">
</text><text class="terminal-2102512713-r1" x="0" y="654.4" textLength="12.2" clip-path="url(#terminal-2102512713-line-26)">│</text><text class="terminal-2102512713-r1" x="719.8" y="654.4" textLength="12.2" clip-path="url(#terminal-2102512713-line-26)">│</text><text class="terminal-2102512713-r2" x="1952" y="654.4" textLength="12.2" clip-path="url(#terminal-2102512713-line-26)">
</text><text class="terminal-2102512713-r1" x="0" y="678.8" textLength="12.2" clip-path="url(#terminal-2102512713-line-27)">└</text><text class="terminal-2102512713-r1" x="12.2" y="678.8" textLength="707.6" clip-path="url(#terminal-2102512713-line-27)">──────────────────────────────────────────────────────────</text><text class="terminal-2102512713-r1" x="719.8" y="678.8" textLength="12.2" clip-path="url(#terminal-2102512713-line-27)">┘</text><text class="terminal-2102512713-r2" x="1952" y="678.8" textLength="12.2" clip-path="url(#terminal-2102512713-line-27)">
</text><text class="terminal-2102512713-r2" x="1952" y="703.2" textLength="12.2" clip-path="url(#terminal-2102512713-line-28)">
</text><text class="terminal-2102512713-r2" x="1952" y="727.6" textLength="12.2" clip-path="url(#terminal-2102512713-line-29)">
</text><text class="terminal-2102512713-r2" x="1952" y="752" textLength="12.2" clip-path="url(#terminal-2102512713-line-30)">
</text><text class="terminal-2102512713-r2" x="1952" y="776.4" textLength="12.2" clip-path="url(#terminal-2102512713-line-31)">
</text><text class="terminal-2102512713-r2" x="1952" y="800.8" textLength="12.2" clip-path="url(#terminal-2102512713-line-32)">
</text><text class="terminal-2102512713-r2" x="1952" y="825.2" textLength="12.2" clip-path="url(#terminal-2102512713-line-33)">
</text><text class="terminal-2102512713-r2" x="1952" y="849.6" textLength="12.2" clip-path="url(#terminal-2102512713-line-34)">
</text><text class="terminal-2102512713-r2" x="1952" y="874" textLength="12.2" clip-path="url(#terminal-2102512713-line-35)">
</text><text class="terminal-2102512713-r2" x="1952" y="898.4" textLength="12.2" clip-path="url(#terminal-2102512713-line-36)">
</text><text class="terminal-2102512713-r2" x="1952" y="922.8" textLength="12.2" clip-path="url(#terminal-2102512713-line-37)">
</text><text class="terminal-2102512713-r2" x="1952" y="947.2" textLength="12.2" clip-path="url(#terminal-2102512713-line-38)">
</text><text class="terminal-2102512713-r2" x="1952" y="971.6" textLength="12.2" clip-path="url(#terminal-2102512713-line-39)">
</text><text class="terminal-2102512713-r2" x="1952" y="996" textLength="12.2" clip-path="url(#terminal-2102512713-line-40)">
</text><text class="terminal-2102512713-r2" x="1952" y="1020.4" textLength="12.2" clip-path="url(#terminal-2102512713-line-41)">
</text><text class="terminal-2102512713-r2" x="1952" y="1044.8" textLength="12.2" clip-path="url(#terminal-2102512713-line-42)">
</text><text class="terminal-2102512713-r2" x="1952" y="1069.2" textLength="12.2" clip-path="url(#terminal-2102512713-line-43)">
</text><text class="terminal-2102512713-r2" x="1952" y="1093.6" textLength="12.2" clip-path="url(#terminal-2102512713-line-44)">
</text><text class="terminal-2102512713-r2" x="1952" y="1118" textLength="12.2" clip-path="url(#terminal-2102512713-line-45)">
</text><text class="terminal-2102512713-r2" x="1952" y="1142.4" textLength="12.2" clip-path="url(#terminal-2102512713-line-46)">
</text>
    </g>
    </g>
</svg>
