<svg class="rich-terminal" viewBox="0 0 1970 1221.1999999999998" xmlns="http://www.w3.org/2000/svg">
    <!-- Generated with Rich https://www.textualize.io -->
    <style>

    @font-face {
        font-family: "Fira Code";
        src: local("FiraCode-Regular"),
                url("https://cdnjs.cloudflare.com/ajax/libs/firacode/6.2.0/woff2/FiraCode-Regular.woff2") format("woff2"),
                url("https://cdnjs.cloudflare.com/ajax/libs/firacode/6.2.0/woff/FiraCode-Regular.woff") format("woff");
        font-style: normal;
        font-weight: 400;
    }
    @font-face {
        font-family: "Fira Code";
        src: local("FiraCode-Bold"),
                url("https://cdnjs.cloudflare.com/ajax/libs/firacode/6.2.0/woff2/FiraCode-Bold.woff2") format("woff2"),
                url("https://cdnjs.cloudflare.com/ajax/libs/firacode/6.2.0/woff/FiraCode-Bold.woff") format("woff");
        font-style: bold;
        font-weight: 700;
    }

    .terminal-549010224-matrix {
        font-family: Fira Code, monospace;
        font-size: 20px;
        line-height: 24.4px;
        font-variant-east-asian: full-width;
    }

    .terminal-549010224-title {
        font-size: 18px;
        font-weight: bold;
        font-family: arial;
    }

    .terminal-549010224-r1 { fill: #c5c8c6 }
.terminal-549010224-r2 { fill: #4a7c59 }
.terminal-549010224-r3 { fill: #e8e4df;font-weight: bold }
.terminal-549010224-r4 { fill: #e8e4df }
.terminal-549010224-r5 { fill: #2b2b2b }
.terminal-549010224-r6 { fill: #020202 }
    </style>

    <defs>
    <clipPath id="terminal-549010224-clip-terminal">
      <rect x="0" y="0" width="1951.0" height="1170.1999999999998" />
    </clipPath>
    <clipPath id="terminal-549010224-line-0">
    <rect x="0" y="1.5" width="1952" height="24.65"/>
            </clipPath>
<clipPath id="terminal-549010224-line-1">
    <rect x="0" y="25.9" width="1952" height="24.65"/>
            </clipPath>
<clipPath id="terminal-549010224-line-2">
    <rect x="0" y="50.3" width="1952" height="24.65"/>
            </clipPath>
<clipPath id="terminal-549010224-line-3">
    <rect x="0" y="74.7" width="1952" height="24.65"/>
            </clipPath>
<clipPath id="terminal-549010224-line-4">
    <rect x="0" y="99.1" width="1952" height="24.65"/>
            </clipPath>
<clipPath id="terminal-549010224-line-5">
    <rect x="0" y="123.5" width="1952" height="24.65"/>
            </clipPath>
<clipPath id="terminal-549010224-line-6">
    <rect x="0" y="147.9" width="1952" height="24.65"/>
            </clipPath>
<clipPath id="terminal-549010224-line-7">
    <rect x="0" y="172.3" width="1952" height="24.65"/>
            </clipPath>
<clipPath id="terminal-549010224-line-8">
    <rect x="0" y="196.7" width="1952" height="24.65"/>
            </clipPath>
<clipPath id="terminal-549010224-line-9">
    <rect x="0" y="221.1" width="1952" height="24.65"/>
            </clipPath>
<clipPath id="terminal-549010224-line-10">
    <rect x="0" y="245.5" width="1952" height="24.65"/>
            </clipPath>
<clipPath id="terminal-549010224-line-11">
    <rect x="0" y="269.9" width="1952" height="24.65"/>
            </clipPath>
<clipPath id="terminal-549010224-line-12">
    <rect x="0" y="294.3" width="1952" height="24.65"/>
            </clipPath>
<clipPath id="terminal-549010224-line-13">
    <rect x="0" y="318.7" width="1952" height="24.65"/>
            </clipPath>
<clipPath id="terminal-549010224-line-14">
    <rect x="0" y="343.1" width="1952" height="24.65"/>
            </clipPath>
<clipPath id="terminal-549010224-line-15">
    <rect x="0" y="367.5" width="1952" height="24.65"/>
            </clipPath>
<clipPath id="terminal-549010224-line-16">
    <rect x="0" y="391.9" width="1952" height="24.65"/>
            </clipPath>
<clipPath id="terminal-549010224-line-17">
    <rect x="0" y="416.3" width="1952" height="24.65"/>
            </clipPath>
<clipPath id="terminal-549010224-line-18">
    <rect x="0" y="440.7" width="1952" height="24.65"/>
            </clipPath>
<clipPath id="terminal-549010224-line-19">
    <rect x="0" y="465.1" width="1952" height="24.65"/>
            </clipPath>
<clipPath id="terminal-549010224-line-20">
    <rect x="0" y="489.5" width="1952" height="24.65"/>
            </clipPath>
<clipPath id="terminal-549010224-line-21">
    <rect x="0" y="513.9" width="1952" height="24.65"/>
            </clipPath>
<clipPath id="terminal-549010224-line-22">
    <rect x="0" y="538.3" width="1952" height="24.65"/>
            </clipPath>
<clipPath id="terminal-549010224-line-23">
    <rect x="0" y="562.7" width="1952" height="24.65"/>
            </clipPath>
<clipPath id="terminal-549010224-line-24">
    <rect x="0" y="587.1" width="1952" height="24.65"/>
            </clipPath>
<clipPath id="terminal-549010224-line-25">
    <rect x="0" y="611.5" width="1952" height="24.65"/>
            </clipPath>
<clipPath id="terminal-549010224-line-26">
    <rect x="0" y="635.9" width="1952" height="24.65"/>
            </clipPath>
<clipPath id="terminal-549010224-line-27">
    <rect x="0" y="660.3" width="1952" height="24.65"/>
            </clipPath>
<clipPath id="terminal-549010224-line-28">
    <rect x="0" y="684.7" width="1952" height="24.65"/>
            </clipPath>
<clipPath id="terminal-549010224-line-29">
    <rect x="0" y="709.1" width="1952" height="24.65"/>
            </clipPath>
<clipPath id="terminal-549010224-line-30">
    <rect x="0" y="733.5" width="1952" height="24.65"/>
            </clipPath>
<clipPath id="terminal-549010224-line-31">
    <rect x="0" y="757.9" width="1952" height="24.65"/>
            </clipPath>
<clipPath id="terminal-549010224-line-32">
    <rect x="0" y="782.3" width="1952" height="24.65"/>
            </clipPath>
<clipPath id="terminal-549010224-line-33">
    <rect x="0" y="806.7" width="1952" height="24.65"/>
            </clipPath>
<clipPath id="terminal-549010224-line-34">
    <rect x="0" y="831.1" width="1952" height="24.65"/>
            </clipPath>
<clipPath id="terminal-549010224-line-35">
    <rect x="0" y="855.5" width="1952" height="24.65"/>
            </clipPath>
<clipPath id="terminal-549010224-line-36">
    <rect x="0" y="879.9" width="1952" height="24.65"/>
            </clipPath>
<clipPath id="terminal-549010224-line-37">
    <rect x="0" y="904.3" width="1952" height="24.65"/>
            </clipPath>
<clipPath id="terminal-549010224-line-38">
    <rect x="0" y="928.7" width="1952" height="24.65"/>
            </clipPath>
<clipPath id="terminal-549010224-line-39">
    <rect x="0" y="953.1" width="1952" height="24.65"/>
            </clipPath>
<clipPath id="terminal-549010224-line-40">
    <rect x="0" y="977.5" width="1952" height="24.65"/>
            </clipPath>
<clipPath id="terminal-549010224-line-41">
    <rect x="0" y="1001.9" width="1952" height="24.65"/>
            </clipPath>
<clipPath id="terminal-549010224-line-42">
    <rect x="0" y="1026.3" width="1952" height="24.65"/>
            </clipPath>
<clipPath id="terminal-549010224-line-43">
    <rect x="0" y="1050.7" width="1952" height="24.65"/>
            </clipPath>
<clipPath id="terminal-549010224-line-44">
    <rect x="0" y="1075.1" width="1952" height="24.65"/>
            </clipPath>
<clipPath id="terminal-549010224-line-45">
    <rect x="0" y="1099.5" width="1952" height="24.65"/>
            </clipPath>
<clipPath id="terminal-549010224-line-46">
    <rect x="0" y="1123.9" width="1952" height="24.65"/>
            </clipPath>
    </defs>

    <rect fill="#292929" stroke="rgba(255,255,255,0.35)" stroke-width="1" x="1" y="1" width="1968" height="1219.2" rx="8"/><text class="terminal-549010224-title" fill="#c5c8c6" text-anchor="middle" x="984" y="27">GKL&#160;—&#160;Fantasy&#160;Baseball&#160;Command&#160;Center</text>
            <g transform="translate(26,22)">
            <circle cx="0" cy="0" r="7" fill="#ff5f57"/>
            <circle cx="22" cy="0" r="7" fill="#febc2e"/>
            <circle cx="44" cy="0" r="7" fill="#28c840"/>
            </g>
        
    <g transform="translate(9, 41)" clip-path="url(#terminal-549010224-clip-terminal)">
    <rect fill="#181818" x="0" y="1.5" width="1952" height="24.65" shape-rendering="crispEdges"/><rect fill="#181818" x="0" y="25.9" width="1952" height="24.65" shape-rendering="crispEdges"/><rect fill="#181818" x="0" y="50.3" width="1952" height="24.65" shape-rendering="crispEdges"/><rect fill="#181818" x="0" y="74.7" width="1952" height="24.65" shape-rendering="crispEdges"/><rect fill="#181818" x="0" y="99.1" width="1952" height="24.65" shape-rendering="crispEdges"/><rect fill="#181818" x="0" y="123.5" width="1952" height="24.65" shape-rendering="crispEdges"/><rect fill="#181818" x="0" y="147.9" width="1952" height="24.65" shape-rendering="crispEdges"/><rect fill="#181818" x="0" y="172.3" width="1952" height="24.65" shape-rendering="crispEdges"/><rect fill="#181818" x="0" y="196.7" width="1952" height="24.65" shape-rendering="crispEdges"/><rect fill="#181818" x="0" y="221.1" width="1952" height="24.65" shape-rendering="crispEdges"/><rect fill="#181818" x="0" y="245.5" width="1952" height="24.65" shape-rendering="crispEdges"/><rect fill="#181818" x="0" y="269.9" width="1952" height="24.65" shape-rendering="crispEdges"/><rect fill="#181818" x="0" y="294.3" width="671" height="24.65" shape-rendering="crispEdges"/><rect fill="#222222" x="671" y="294.3" width="12.2" height="24.65" shape-rendering="crispEdges"/><rect fill="#222222" x="683.2" y="294.3" width="585.6" height="24.65" shape-rendering="crispEdges"/><rect fill="#222222" x="1268.8" y="294.3" width="12.2" height="24.65" shape-rendering="crispEdges"/><rect fill="#181818" x="1281" y="294.3" width="671" height="24.65" shape-rendering="crispEdges"/><rect fill="#181818" x="0" y="318.7" width="671" height="24.65" shape-rendering="crispEdges"/><rect fill="#222222" x="671" y="318.7" width="12.2" height="24.65" shape-rendering="crispEdges"/><rect fill="#222222" x="683.2" y="318.7" width="585.6" height="24.65" shape-rendering="crispEdges"/><rect fill="#222222" x="1268.8" y="318.7" width="12.2" height="24.65" shape-rendering="crispEdges"/><rect fill="#181818" x="1281" y="318.7" width="671" height="24.65" shape-rendering="crispEdges"/><rect fill="#181818" x="0" y="343.1" width="671" height="24.65" shape-rendering="crispEdges"/><rect fill="#222222" x="671" y="343.1" width="12.2" height="24.65" shape-rendering="crispEdges"/><rect fill="#222222" x="683.2" y="343.1" width="24.4" height="24.65" shape-rendering="crispEdges"/><rect fill="#4a7c59" x="707.6" y="343.1" width="195.2" height="24.65" shape-rendering="crispEdges"/><rect fill="#4a7c59" x="902.8" y="343.1" width="134.2" height="24.65" shape-rendering="crispEdges"/><rect fill="#4a7c59" x="1037" y="343.1" width="207.4" height="24.65" shape-rendering="crispEdges"/><rect fill="#222222" x="1244.4" y="343.1" width="24.4" height="24.65" shape-rendering="crispEdges"/><rect fill="#222222" x="1268.8" y="343.1" width="12.2" height="24.65" shape-rendering="crispEdges"/><rect fill="#181818" x="1281" y="343.1" width="671" height="24.65" shape-rendering="crispEdges"/><rect fill="#181818" x="0" y="367.5" width="671" height="24.65" shape-rendering="crispEdges"/><rect fill="#222222" x="671" y="367.5" width="12.2" height="24.65" shape-rendering="crispEdges"/><rect fill="#222222" x="683.2" y="367.5" width="24.4" height="24.65" shape-rendering="crispEdges"/><rect fill="#2b2b2b" x="707.6" y="367.5" width="12.2" height="24.65" shape-rendering="crispEdges"/><rect fill="#2b2b2b" x="719.8" y="367.5" width="158.6" height="24.65" shape-rendering="crispEdges"/><rect fill="#2b2b2b" x="878.4" y="367.5" width="329.4" height="24.65" shape-rendering="crispEdges"/><rect fill="#2b2b2b" x="1207.8" y="367.5" width="12.2" height="24.65" shape-rendering="crispEdges"/><rect fill="#1e3224" x="1220" y="367.5" width="24.4" height="24.65" shape-rendering="crispEdges"/><rect fill="#222222" x="1244.4" y="367.5" width="24.4" height="24.65" shape-rendering="crispEdges"/><rect fill="#222222" x="1268.8" y="367.5" width="12.2" height="24.65" shape-rendering="crispEdges"/><rect fill="#181818" x="1281" y="367.5" width="671" height="24.65" shape-rendering="crispEdges"/><rect fill="#181818" x="0" y="391.9" width="671" height="24.65" shape-rendering="crispEdges"/><rect fill="#222222" x="671" y="391.9" width="12.2" height="24.65" shape-rendering="crispEdges"/><rect fill="#222222" x="683.2" y="391.9" width="24.4" height="24.65" shape-rendering="crispEdges"/><rect fill="#2b2b2b" x="707.6" y="391.9" width="12.2" height="24.65" shape-rendering="crispEdges"/><rect fill="#2b2b2b" x="719.8" y="391.9" width="195.2" height="24.65" shape-rendering="crispEdges"/><rect fill="#2b2b2b" x="915" y="391.9" width="292.8" height="24.65" shape-rendering="crispEdges"/><rect fill="#2b2b2b" x="1207.8" y="391.9" width="12.2" height="24.65" shape-rendering="crispEdges"/><rect fill="#1e3224" x="1220" y="391.9" width="24.4" height="24.65" shape-rendering="crispEdges"/><rect fill="#222222" x="1244.4" y="391.9" width="24.4" height="24.65" shape-rendering="crispEdges"/><rect fill="#222222" x="1268.8" y="391.9" width="12.2" height="24.65" shape-rendering="crispEdges"/><rect fill="#181818" x="1281" y="391.9" width="671" height="24.65" shape-rendering="crispEdges"/><rect fill="#181818" x="0" y="416.3" width="671" height="24.65" shape-rendering="crispEdges"/><rect fill="#222222" x="671" y="416.3" width="12.2" height="24.65" shape-rendering="crispEdges"/><rect fill="#222222" x="683.2" y="416.3" width="24.4" height="24.65" shape-rendering="crispEdges"/><rect fill="#2b2b2b" x="707.6" y="416.3" width="12.2" height="24.65" shape-rendering="crispEdges"/><rect fill="#2b2b2b" x="719.8" y="416.3" width="170.8" height="24.65" shape-rendering="crispEdges"/><rect fill="#2b2b2b" x="890.6" y="416.3" width="317.2" height="24.65" shape-rendering="crispEdges"/><rect fill="#2b2b2b" x="1207.8" y="416.3" width="12.2" height="24.65" shape-rendering="crispEdges"/><rect fill="#1e3224" x="1220" y="416.3" width="24.4" height="24.65" shape-rendering="crispEdges"/><rect fill="#222222" x="1244.4" y="416.3" width="24.4" height="24.65" shape-rendering="crispEdges"/><rect fill="#222222" x="1268.8" y="416.3" width="12.2" height="24.65" shape-rendering="crispEdges"/><rect fill="#181818" x="1281" y="416.3" width="671" height="24.65" shape-rendering="crispEdges"/><rect fill="#181818" x="0" y="440.7" width="671" height="24.65" shape-rendering="crispEdges"/><rect fill="#222222" x="671" y="440.7" width="12.2" height="24.65" shape-rendering="crispEdges"/><rect fill="#222222" x="683.2" y="440.7" width="24.4" height="24.65" shape-rendering="crispEdges"/><rect fill="#2b2b2b" x="707.6" y="440.7" width="12.2" height="24.65" shape-rendering="crispEdges"/><rect fill="#2b2b2b" x="719.8" y="440.7" width="183" height="24.65" shape-rendering="crispEdges"/><rect fill="#2b2b2b" x="902.8" y="440.7" width="305" height="24.65" shape-rendering="crispEdges"/><rect fill="#2b2b2b" x="1207.8" y="440.7" width="12.2" height="24.65" shape-rendering="crispEdges"/><rect fill="#1e3224" x="1220" y="440.7" width="24.4" height="24.65" shape-rendering="crispEdges"/><rect fill="#222222" x="1244.4" y="440.7" width="24.4" height="24.65" shape-rendering="crispEdges"/><rect fill="#222222" x="1268.8" y="440.7" width="12.2" height="24.65" shape-rendering="crispEdges"/><rect fill="#181818" x="1281" y="440.7" width="671" height="24.65" shape-rendering="crispEdges"/><rect fill="#181818" x="0" y="465.1" width="671" height="24.65" shape-rendering="crispEdges"/><rect fill="#222222" x="671" y="465.1" width="12.2" height="24.65" shape-rendering="crispEdges"/><rect fill="#222222" x="683.2" y="465.1" width="24.4" height="24.65" shape-rendering="crispEdges"/><rect fill="#2b2b2b" x="707.6" y="465.1" width="12.2" height="24.65" shape-rendering="crispEdges"/><rect fill="#2b2b2b" x="719.8" y="465.1" width="146.4" height="24.65" shape-rendering="crispEdges"/><rect fill="#2b2b2b" x="866.2" y="465.1" width="341.6" height="24.65" shape-rendering="crispEdges"/><rect fill="#2b2b2b" x="1207.8" y="465.1" width="12.2" height="24.65" shape-rendering="crispEdges"/><rect fill="#1e3224" x="1220" y="465.1" width="24.4" height="24.65" shape-rendering="crispEdges"/><rect fill="#222222" x="1244.4" y="465.1" width="24.4" height="24.65" shape-rendering="crispEdges"/><rect fill="#222222" x="1268.8" y="465.1" width="12.2" height="24.65" shape-rendering="crispEdges"/><rect fill="#181818" x="1281" y="465.1" width="671" height="24.65" shape-rendering="crispEdges"/><rect fill="#181818" x="0" y="489.5" width="671" height="24.65" shape-rendering="crispEdges"/><rect fill="#222222" x="671" y="489.5" width="12.2" height="24.65" shape-rendering="crispEdges"/><rect fill="#222222" x="683.2" y="489.5" width="24.4" height="24.65" shape-rendering="crispEdges"/><rect fill="#2b2b2b" x="707.6" y="489.5" width="12.2" height="24.65" shape-rendering="crispEdges"/><rect fill="#2b2b2b" x="719.8" y="489.5" width="158.6" height="24.65" shape-rendering="crispEdges"/><rect fill="#2b2b2b" x="878.4" y="489.5" width="329.4" height="24.65" shape-rendering="crispEdges"/><rect fill="#2b2b2b" x="1207.8" y="489.5" width="12.2" height="24.65" shape-rendering="crispEdges"/><rect fill="#1e3224" x="1220" y="489.5" width="24.4" height="24.65" shape-rendering="crispEdges"/><rect fill="#222222" x="1244.4" y="489.5" width="24.4" height="24.65" shape-rendering="crispEdges"/><rect fill="#222222" x="1268.8" y="489.5" width="12.2" height="24.65" shape-rendering="crispEdges"/><rect fill="#181818" x="1281" y="489.5" width="671" height="24.65" shape-rendering="crispEdges"/><rect fill="#181818" x="0" y="513.9" width="671" height="24.65" shape-rendering="crispEdges"/><rect fill="#222222" x="671" y="513.9" width="12.2" height="24.65" shape-rendering="crispEdges"/><rect fill="#222222" x="683.2" y="513.9" width="24.4" height="24.65" shape-rendering="crispEdges"/><rect fill="#2b2b2b" x="707.6" y="513.9" width="12.2" height="24.65" shape-rendering="crispEdges"/><rect fill="#2b2b2b" x="719.8" y="513.9" width="231.8" height="24.65" shape-rendering="crispEdges"/><rect fill="#2b2b2b" x="951.6" y="513.9" width="256.2" height="24.65" shape-rendering="crispEdges"/><rect fill="#2b2b2b" x="1207.8" y="513.9" width="12.2" height="24.65" shape-rendering="crispEdges"/><rect fill="#1e3224" x="1220" y="513.9" width="24.4" height="24.65" shape-rendering="crispEdges"/><rect fill="#222222" x="1244.4" y="513.9" width="24.4" height="24.65" shape-rendering="crispEdges"/><rect fill="#222222" x="1268.8" y="513.9" width="12.2" height="24.65" shape-rendering="crispEdges"/><rect fill="#181818" x="1281" y="513.9" width="671" height="24.65" shape-rendering="crispEdges"/><rect fill="#181818" x="0" y="538.3" width="671" height="24.65" shape-rendering="crispEdges"/><rect fill="#222222" x="671" y="538.3" width="12.2" height="24.65" shape-rendering="crispEdges"/><rect fill="#222222" x="683.2" y="538.3" width="24.4" height="24.65" shape-rendering="crispEdges"/><rect fill="#2b2b2b" x="707.6" y="538.3" width="12.2" height="24.65" shape-rendering="crispEdges"/><rect fill="#2b2b2b" x="719.8" y="538.3" width="219.6" height="24.65" shape-rendering="crispEdges"/><rect fill="#2b2b2b" x="939.4" y="538.3" width="268.4" height="24.65" shape-rendering="crispEdges"/><rect fill="#2b2b2b" x="1207.8" y="538.3" width="12.2" height="24.65" shape-rendering="crispEdges"/><rect fill="#1e3224" x="1220" y="538.3" width="24.4" height="24.65" shape-rendering="crispEdges"/><rect fill="#222222" x="1244.4" y="538.3" width="24.4" height="24.65" shape-rendering="crispEdges"/><rect fill="#222222" x="1268.8" y="538.3" width="12.2" height="24.65" shape-rendering="crispEdges"/><rect fill="#181818" x="1281" y="538.3" width="671" height="24.65" shape-rendering="crispEdges"/><rect fill="#181818" x="0" y="562.7" width="671" height="24.65" shape-rendering="crispEdges"/><rect fill="#222222" x="671" y="562.7" width="12.2" height="24.65" shape-rendering="crispEdges"/><rect fill="#222222" x="683.2" y="562.7" width="24.4" height="24.65" shape-rendering="crispEdges"/><rect fill="#2b2b2b" x="707.6" y="562.7" width="12.2" height="24.65" shape-rendering="crispEdges"/><rect fill="#2b2b2b" x="719.8" y="562.7" width="122" height="24.65" shape-rendering="crispEdges"/><rect fill="#2b2b2b" x="841.8" y="562.7" width="366" height="24.65" shape-rendering="crispEdges"/><rect fill="#2b2b2b" x="1207.8" y="562.7" width="12.2" height="24.65" shape-rendering="crispEdges"/><rect fill="#1e3224" x="1220" y="562.7" width="24.4" height="24.65" shape-rendering="crispEdges"/><rect fill="#222222" x="1244.4" y="562.7" width="24.4" height="24.65" shape-rendering="crispEdges"/><rect fill="#222222" x="1268.8" y="562.7" width="12.2" height="24.65" shape-rendering="crispEdges"/><rect fill="#181818" x="1281" y="562.7" width="671" height="24.65" shape-rendering="crispEdges"/><rect fill="#181818" x="0" y="587.1" width="671" height="24.65" shape-rendering="crispEdges"/><rect fill="#222222" x="671" y="587.1" width="12.2" height="24.65" shape-rendering="crispEdges"/><rect fill="#222222" x="683.2" y="587.1" width="24.4" height="24.65" shape-rendering="crispEdges"/><rect fill="#2b2b2b" x="707.6" y="587.1" width="12.2" height="24.65" shape-rendering="crispEdges"/><rect fill="#2b2b2b" x="719.8" y="587.1" width="183" height="24.65" shape-rendering="crispEdges"/><rect fill="#2b2b2b" x="902.8" y="587.1" width="305" height="24.65" shape-rendering="crispEdges"/><rect fill="#2b2b2b" x="1207.8" y="587.1" width="12.2" height="24.65" shape-rendering="crispEdges"/><rect fill="#1e3224" x="1220" y="587.1" width="24.4" height="24.65" shape-rendering="crispEdges"/><rect fill="#222222" x="1244.4" y="587.1" width="24.4" height="24.65" shape-rendering="crispEdges"/><rect fill="#222222" x="1268.8" y="587.1" width="12.2" height="24.65" shape-rendering="crispEdges"/><rect fill="#181818" x="1281" y="587.1" width="671" height="24.65" shape-rendering="crispEdges"/><rect fill="#181818" x="0" y="611.5" width="671" height="24.65" shape-rendering="crispEdges"/><rect fill="#222222" x="671" y="611.5" width="12.2" height="24.65" shape-rendering="crispEdges"/><rect fill="#222222" x="683.2" y="611.5" width="24.4" height="24.65" shape-rendering="crispEdges"/><rect fill="#2b2b2b" x="707.6" y="611.5" width="12.2" height="24.65" shape-rendering="crispEdges"/><rect fill="#2b2b2b" x="719.8" y="611.5" width="219.6" height="24.65" shape-rendering="crispEdges"/><rect fill="#2b2b2b" x="939.4" y="611.5" width="268.4" height="24.65" shape-rendering="crispEdges"/><rect fill="#2b2b2b" x="1207.8" y="611.5" width="12.2" height="24.65" shape-rendering="crispEdges"/><rect fill="#020202" x="1220" y="611.5" width="24.4" height="24.65" shape-rendering="crispEdges"/><rect fill="#222222" x="1244.4" y="611.5" width="24.4" height="24.65" shape-rendering="crispEdges"/><rect fill="#222222" x="1268.8" y="611.5" width="12.2" height="24.65" shape-rendering="crispEdges"/><rect fill="#181818" x="1281" y="611.5" width="671" height="24.65" shape-rendering="crispEdges"/><rect fill="#181818" x="0" y="635.9" width="671" height="24.65" shape-rendering="crispEdges"/><rect fill="#222222" x="671" y="635.9" width="12.2" height="24.65" shape-rendering="crispEdges"/><rect fill="#222222" x="683.2" y="635.9" width="24.4" height="24.65" shape-rendering="crispEdges"/><rect fill="#2b2b2b" x="707.6" y="635.9" width="12.2" height="24.65" shape-rendering="crispEdges"/><rect fill="#2b2b2b" x="719.8" y="635.9" width="231.8" height="24.65" shape-rendering="crispEdges"/><rect fill="#2b2b2b" x="951.6" y="635.9" width="256.2" height="24.65" shape-rendering="crispEdges"/><rect fill="#2b2b2b" x="1207.8" y="635.9" width="12.2" height="24.65" shape-rendering="crispEdges"/><rect fill="#020202" x="1220" y="635.9" width="24.4" height="24.65" shape-rendering="crispEdges"/><rect fill="#222222" x="1244.4" y="635.9" width="24.4" height="24.65" shape-rendering="crispEdges"/><rect fill="#222222" x="1268.8" y="635.9" width="12.2" height="24.65" shape-rendering="crispEdges"/><rect fill="#181818" x="1281" y="635.9" width="671" height="24.65" shape-rendering="crispEdges"/><rect fill="#181818" x="0" y="660.3" width="671" height="24.65" shape-rendering="crispEdges"/><rect fill="#222222" x="671" y="660.3" width="12.2" height="24.65" shape-rendering="crispEdges"/><rect fill="#222222" x="683.2" y="660.3" width="24.4" height="24.65" shape-rendering="crispEdges"/><rect fill="#2b2b2b" x="707.6" y="660.3" width="12.2" height="24.65" shape-rendering="crispEdges"/><rect fill="#2b2b2b" x="719.8" y="660.3" width="256.2" height="24.65" shape-rendering="crispEdges"/><rect fill="#2b2b2b" x="976" y="660.3" width="231.8" height="24.65" shape-rendering="crispEdges"/><rect fill="#2b2b2b" x="1207.8" y="660.3" width="12.2" height="24.65" shape-rendering="crispEdges"/><rect fill="#020202" x="1220" y="660.3" width="24.4" height="24.65" shape-rendering="crispEdges"/><rect fill="#222222" x="1244.4" y="660.3" width="24.4" height="24.65" shape-rendering="crispEdges"/><rect fill="#222222" x="1268.8" y="660.3" width="12.2" height="24.65" shape-rendering="crispEdges"/><rect fill="#181818" x="1281" y="660.3" width="671" height="24.65" shape-rendering="crispEdges"/><rect fill="#181818" x="0" y="684.7" width="671" height="24.65" shape-rendering="crispEdges"/><rect fill="#222222" x="671" y="684.7" width="12.2" height="24.65" shape-rendering="crispEdges"/><rect fill="#222222" x="683.2" y="684.7" width="24.4" height="24.65" shape-rendering="crispEdges"/><rect fill="#222222" x="707.6" y="684.7" width="536.8" height="24.65" shape-rendering="crispEdges"/><rect fill="#222222" x="1244.4" y="684.7" width="24.4" height="24.65" shape-rendering="crispEdges"/><rect fill="#222222" x="1268.8" y="684.7" width="12.2" height="24.65" shape-rendering="crispEdges"/><rect fill="#181818" x="1281" y="684.7" width="671" height="24.65" shape-rendering="crispEdges"/><rect fill="#181818" x="0" y="709.1" width="671" height="24.65" shape-rendering="crispEdges"/><rect fill="#222222" x="671" y="709.1" width="12.2" height="24.65" shape-rendering="crispEdges"/><rect fill="#222222" x="683.2" y="709.1" width="24.4" height="24.65" shape-rendering="crispEdges"/><rect fill="#222222" x="707.6" y="709.1" width="536.8" height="24.65" shape-rendering="crispEdges"/><rect fill="#222222" x="1244.4" y="709.1" width="24.4" height="24.65" shape-rendering="crispEdges"/><rect fill="#222222" x="1268.8" y="709.1" width="12.2" height="24.65" shape-rendering="crispEdges"/><rect fill="#181818" x="1281" y="709.1" width="671" height="24.65" shape-rendering="crispEdges"/><rect fill="#181818" x="0" y="733.5" width="671" height="24.65" shape-rendering="crispEdges"/><rect fill="#222222" x="671" y="733.5" width="12.2" height="24.65" shape-rendering="crispEdges"/><rect fill="#222222" x="683.2" y="733.5" width="24.4" height="24.65" shape-rendering="crispEdges"/><rect fill="#222222" x="707.6" y="733.5" width="536.8" height="24.65" shape-rendering="crispEdges"/><rect fill="#222222" x="1244.4" y="733.5" width="24.4" height="24.65" shape-rendering="crispEdges"/><rect fill="#222222" x="1268.8" y="733.5" width="12.2" height="24.65" shape-rendering="crispEdges"/><rect fill="#181818" x="1281" y="733.5" width="671" height="24.65" shape-rendering="crispEdges"/><rect fill="#181818" x="0" y="757.9" width="671" height="24.65" shape-rendering="crispEdges"/><rect fill="#222222" x="671" y="757.9" width="12.2" height="24.65" shape-rendering="crispEdges"/><rect fill="#222222" x="683.2" y="757.9" width="24.4" height="24.65" shape-rendering="crispEdges"/><rect fill="#222222" x="707.6" y="757.9" width="536.8" height="24.65" shape-rendering="crispEdges"/><rect fill="#222222" x="1244.4" y="757.9" width="24.4" height="24.65" shape-rendering="crispEdges"/><rect fill="#222222" x="1268.8" y="757.9" width="12.2" height="24.65" shape-rendering="crispEdges"/><rect fill="#181818" x="1281" y="757.9" width="671" height="24.65" shape-rendering="crispEdges"/><rect fill="#181818" x="0" y="782.3" width="671" height="24.65" shape-rendering="crispEdges"/><rect fill="#222222" x="671" y="782.3" width="12.2" height="24.65" shape-rendering="crispEdges"/><rect fill="#222222" x="683.2" y="782.3" width="24.4" height="24.65" shape-rendering="crispEdges"/><rect fill="#222222" x="707.6" y="782.3" width="536.8" height="24.65" shape-rendering="crispEdges"/><rect fill="#222222" x="1244.4" y="782.3" width="24.4" height="24.65" shape-rendering="crispEdges"/><rect fill="#222222" x="1268.8" y="782.3" width="12.2" height="24.65" shape-rendering="crispEdges"/><rect fill="#181818" x="1281" y="782.3" width="671" height="24.65" shape-rendering="crispEdges"/><rect fill="#181818" x="0" y="806.7" width="671" height="24.65" shape-rendering="crispEdges"/><rect fill="#222222" x="671" y="806.7" width="12.2" height="24.65" shape-rendering="crispEdges"/><rect fill="#222222" x="683.2" y="806.7" width="585.6" height="24.65" shape-rendering="crispEdges"/><rect fill="#222222" x="1268.8" y="806.7" width="12.2" height="24.65" shape-rendering="crispEdges"/><rect fill="#181818" x="1281" y="806.7" width="671" height="24.65" shape-rendering="crispEdges"/><rect fill="#181818" x="0" y="831.1" width="671" height="24.65" shape-rendering="crispEdges"/><rect fill="#222222" x="671" y="831.1" width="12.2" height="24.65" shape-rendering="crispEdges"/><rect fill="#222222" x="683.2" y="831.1" width="585.6" height="24.65" shape-rendering="crispEdges"/><rect fill="#222222" x="1268.8" y="831.1" width="12.2" height="24.65" shape-rendering="crispEdges"/><rect fill="#181818" x="1281" y="831.1" width="671" height="24.65" shape-rendering="crispEdges"/><rect fill="#181818" x="0" y="855.5" width="1952" height="24.65" shape-rendering="crispEdges"/><rect fill="#181818" x="0" y="879.9" width="1952" height="24.65" shape-rendering="crispEdges"/><rect fill="#181818" x="0" y="904.3" width="1952" height="24.65" shape-rendering="crispEdges"/><rect fill="#181818" x="0" y="928.7" width="1952" height="24.65" shape-rendering="crispEdges"/><rect fill="#181818" x="0" y="953.1" width="1952" height="24.65" shape-rendering="crispEdges"/><rect fill="#181818" x="0" y="977.5" width="1952" height="24.65" shape-rendering="crispEdges"/><rect fill="#181818" x="0" y="1001.9" width="1952" height="24.65" shape-rendering="crispEdges"/><rect fill="#181818" x="0" y="1026.3" width="1952" height="24.65" shape-rendering="crispEdges"/><rect fill="#181818" x="0" y="1050.7" width="1952" height="24.65" shape-rendering="crispEdges"/><rect fill="#181818" x="0" y="1075.1" width="1952" height="24.65" shape-rendering="crispEdges"/><rect fill="#181818" x="0" y="1099.5" width="1952" height="24.65" shape-rendering="crispEdges"/><rect fill="#181818" x="0" y="1123.9" width="1952" height="24.65" shape-rendering="crispEdges"/><rect fill="#181818" x="0" y="1148.3" width="1952" height="24.65" shape-rendering="crispEdges"/>
    <g class="terminal-549010224-matrix">
    <text class="terminal-549010224-r1" x="1952" y="20" textLength="12.2" clip-path="url(#terminal-549010224-line-0)">
</text><text class="terminal-549010224-r1" x="1952" y="44.4" textLength="12.2" clip-path="url(#terminal-549010224-line-1)">
</text><text class="terminal-549010224-r1" x="1952" y="68.8" textLength="12.2" clip-path="url(#terminal-549010224-line-2)">
</text><text class="terminal-549010224-r1" x="1952" y="93.2" textLength="12.2" clip-path="url(#terminal-549010224-line-3)">
</text><text class="terminal-549010224-r1" x="1952" y="117.6" textLength="12.2" clip-path="url(#terminal-549010224-line-4)">
</text><text class="terminal-549010224-r1" x="1952" y="142" textLength="12.2" clip-path="url(#terminal-549010224-line-5)">
</text><text class="terminal-549010224-r1" x="1952" y="166.4" textLength="12.2" clip-path="url(#terminal-549010224-line-6)">
</text><text class="terminal-549010224-r1" x="1952" y="190.8" textLength="12.2" clip-path="url(#terminal-549010224-line-7)">
</text><text class="terminal-549010224-r1" x="1952" y="215.2" textLength="12.2" clip-path="url(#terminal-549010224-line-8)">
</text><text class="terminal-549010224-r1" x="1952" y="239.6" textLength="12.2" clip-path="url(#terminal-549010224-line-9)">
</text><text class="terminal-549010224-r1" x="1952" y="264" textLength="12.2" clip-path="url(#terminal-549010224-line-10)">
</text><text class="terminal-549010224-r1" x="1952" y="288.4" textLength="12.2" clip-path="url(#terminal-549010224-line-11)">
</text><text class="terminal-549010224-r2" x="671" y="312.8" textLength="12.2" clip-path="url(#terminal-549010224-line-12)">┌</text><text class="terminal-549010224-r2" x="683.2" y="312.8" textLength="585.6" clip-path="url(#terminal-549010224-line-12)">────────────────────────────────────────────────</text><text class="terminal-549010224-r2" x="1268.8" y="312.8" textLength="12.2" clip-path="url(#terminal-549010224-line-12)">┐</text><text class="terminal-549010224-r1" x="1952" y="312.8" textLength="12.2" clip-path="url(#terminal-549010224-line-12)">
</text><text class="terminal-549010224-r2" x="671" y="337.2" textLength="12.2" clip-path="url(#terminal-549010224-line-13)">│</text><text class="terminal-549010224-r2" x="1268.8" y="337.2" textLength="12.2" clip-path="url(#terminal-549010224-line-13)">│</text><text class="terminal-549010224-r1" x="1952" y="337.2" textLength="12.2" clip-path="url(#terminal-549010224-line-13)">
</text><text class="terminal-549010224-r2" x="671" y="361.6" textLength="12.2" clip-path="url(#terminal-549010224-line-14)">│</text><text class="terminal-549010224-r3" x="902.8" y="361.6" textLength="134.2" clip-path="url(#terminal-549010224-line-14)">Select&#160;Team</text><text class="terminal-549010224-r2" x="1268.8" y="361.6" textLength="12.2" clip-path="url(#terminal-549010224-line-14)">│</text><text class="terminal-549010224-r1" x="1952" y="361.6" textLength="12.2" clip-path="url(#terminal-549010224-line-14)">
</text><text class="terminal-549010224-r2" x="671" y="386" textLength="12.2" clip-path="url(#terminal-549010224-line-15)">│</text><text class="terminal-549010224-r4" x="719.8" y="386" textLength="158.6" clip-path="url(#terminal-549010224-line-15)">IWU&#160;Tang&#160;Clan</text><text class="terminal-549010224-r2" x="1268.8" y="386" textLength="12.2" clip-path="url(#terminal-549010224-line-15)">│</text><text class="terminal-549010224-r1" x="1952" y="386" textLength="12.2" clip-path="url(#terminal-549010224-line-15)">
</text><text class="terminal-549010224-r2" x="671" y="410.4" textLength="12.2" clip-path="url(#terminal-549010224-line-16)">│</text><text class="terminal-549010224-r4" x="719.8" y="410.4" textLength="195.2" clip-path="url(#terminal-549010224-line-16)">Big&#160;Daddy&#x27;s&#160;Funk</text><text class="terminal-549010224-r2" x="1268.8" y="410.4" textLength="12.2" clip-path="url(#terminal-549010224-line-16)">│</text><text class="terminal-549010224-r1" x="1952" y="410.4" textLength="12.2" clip-path="url(#terminal-549010224-line-16)">
</text><text class="terminal-549010224-r2" x="671" y="434.8" textLength="12.2" clip-path="url(#terminal-549010224-line-17)">│</text><text class="terminal-549010224-r4" x="719.8" y="434.8" textLength="170.8" clip-path="url(#terminal-549010224-line-17)">Boys&#160;of&#160;Summer</text><text class="terminal-549010224-r2" x="1268.8" y="434.8" textLength="12.2" clip-path="url(#terminal-549010224-line-17)">│</text><text class="terminal-549010224-r1" x="1952" y="434.8" textLength="12.2" clip-path="url(#terminal-549010224-line-17)">
</text><text class="terminal-549010224-r2" x="671" y="459.2" textLength="12.2" clip-path="url(#terminal-549010224-line-18)">│</text><text class="terminal-549010224-r4" x="719.8" y="459.2" textLength="183" clip-path="url(#terminal-549010224-line-18)">Comeback&#160;Season</text><text class="terminal-549010224-r2" x="1268.8" y="459.2" textLength="12.2" clip-path="url(#terminal-549010224-line-18)">│</text><text class="terminal-549010224-r1" x="1952" y="459.2" textLength="12.2" clip-path="url(#terminal-549010224-line-18)">
</text><text class="terminal-549010224-r2" x="671" y="483.6" textLength="12.2" clip-path="url(#terminal-549010224-line-19)">│</text><text class="terminal-549010224-r4" x="719.8" y="483.6" textLength="146.4" clip-path="url(#terminal-549010224-line-19)">Holy&#160;Toledo!</text><text class="terminal-549010224-r2" x="1268.8" y="483.6" textLength="12.2" clip-path="url(#terminal-549010224-line-19)">│</text><text class="terminal-549010224-r1" x="1952" y="483.6" textLength="12.2" clip-path="url(#terminal-549010224-line-19)">
</text><text class="terminal-549010224-r2" x="671" y="508" textLength="12.2" clip-path="url(#terminal-549010224-line-20)">│</text><text class="terminal-549010224-r4" x="719.8" y="508" textLength="158.6" clip-path="url(#terminal-549010224-line-20)">Kirby&#160;Puckett</text><text class="terminal-549010224-r2" x="1268.8" y="508" textLength="12.2" clip-path="url(#terminal-549010224-line-20)">│</text><text class="terminal-549010224-r1" x="1952" y="508" textLength="12.2" clip-path="url(#terminal-549010224-line-20)">
</text><text class="terminal-549010224-r2" x="671" y="532.4" textLength="12.2" clip-path="url(#terminal-549010224-line-21)">│</text><text class="terminal-549010224-r4" x="719.8" y="532.4" textLength="231.8" clip-path="url(#terminal-549010224-line-21)">Mary&#x27;s&#160;Little&#160;Lambs</text><text class="terminal-549010224-r2" x="1268.8" y="532.4" textLength="12.2" clip-path="url(#terminal-549010224-line-21)">│</text><text class="terminal-549010224-r1" x="1952" y="532.4" textLength="12.2" clip-path="url(#terminal-549010224-line-21)">
</text><text class="terminal-549010224-r2" x="671" y="556.8" textLength="12.2" clip-path="url(#terminal-549010224-line-22)">│</text><text class="terminal-549010224-r4" x="719.8" y="556.8" textLength="219.6" clip-path="url(#terminal-549010224-line-22)">My&#160;Name&#160;is&#160;My&#160;Name</text><text class="terminal-549010224-r2" x="1268.8" y="556.8" textLength="12.2" clip-path="url(#terminal-549010224-line-22)">│</text><text class="terminal-549010224-r1" x="1952" y="556.8" textLength="12.2" clip-path="url(#terminal-549010224-line-22)">
</text><text class="terminal-549010224-r2" x="671" y="581.2" textLength="12.2" clip-path="url(#terminal-549010224-line-23)">│</text><text class="terminal-549010224-r4" x="719.8" y="581.2" textLength="122" clip-path="url(#terminal-549010224-line-23)">PJ&#160;Shuffle</text><text class="terminal-549010224-r2" x="1268.8" y="581.2" textLength="12.2" clip-path="url(#terminal-549010224-line-23)">│</text><text class="terminal-549010224-r1" x="1952" y="581.2" textLength="12.2" clip-path="url(#terminal-549010224-line-23)">
</text><text class="terminal-549010224-r2" x="671" y="605.6" textLength="12.2" clip-path="url(#terminal-549010224-line-24)">│</text><text class="terminal-549010224-r4" x="719.8" y="605.6" textLength="183" clip-path="url(#terminal-549010224-line-24)">Spare&#160;Parts&#160;Too</text><text class="terminal-549010224-r6" x="1220" y="605.6" textLength="24.4" clip-path="url(#terminal-549010224-line-24)">▄▄</text><text class="terminal-549010224-r2" x="1268.8" y="605.6" textLength="12.2" clip-path="url(#terminal-549010224-line-24)">│</text><text class="terminal-549010224-r1" x="1952" y="605.6" textLength="12.2" clip-path="url(#terminal-549010224-line-24)">
</text><text class="terminal-549010224-r2" x="671" y="630" textLength="12.2" clip-path="url(#terminal-549010224-line-25)">│</text><text class="terminal-549010224-r4" x="719.8" y="630" textLength="219.6" clip-path="url(#terminal-549010224-line-25)">Tybee&#160;Island&#160;Tides</text><text class="terminal-549010224-r2" x="1268.8" y="630" textLength="12.2" clip-path="url(#terminal-549010224-line-25)">│</text><text class="terminal-549010224-r1" x="1952" y="630" textLength="12.2" clip-path="url(#terminal-549010224-line-25)">
</text><text class="terminal-549010224-r2" x="671" y="654.4" textLength="12.2" clip-path="url(#terminal-549010224-line-26)">│</text><text class="terminal-549010224-r4" x="719.8" y="654.4" textLength="231.8" clip-path="url(#terminal-549010224-line-26)">Steel&#160;City&#160;Sluggers</text><text class="terminal-549010224-r2" x="1268.8" y="654.4" textLength="12.2" clip-path="url(#terminal-549010224-line-26)">│</text><text class="terminal-549010224-r1" x="1952" y="654.4" textLength="12.2" clip-path="url(#terminal-549010224-line-26)">
</text><text class="terminal-549010224-r2" x="671" y="678.8" textLength="12.2" clip-path="url(#terminal-549010224-line-27)">│</text><text class="terminal-549010224-r4" x="719.8" y="678.8" textLength="256.2" clip-path="url(#terminal-549010224-line-27)">Sho(hei)&#160;Me&#160;The&#160;Money</text><text class="terminal-549010224-r2" x="1268.8" y="678.8" textLength="12.2" clip-path="url(#terminal-549010224-line-27)">│</text><text class="terminal-549010224-r1" x="1952" y="678.8" textLength="12.2" clip-path="url(#terminal-549010224-line-27)">
</text><text class="terminal-549010224-r2" x="671" y="703.2" textLength="12.2" clip-path="url(#terminal-549010224-line-28)">│</text><text class="terminal-549010224-r2" x="1268.8" y="703.2" textLength="12.2" clip-path="url(#terminal-549010224-line-28)">│</text><text class="terminal-549010224-r1" x="1952" y="703.2" textLength="12.2" clip-path="url(#terminal-549010224-line-28)">
</text><text class="terminal-549010224-r2" x="671" y="727.6" textLength="12.2" clip-path="url(#terminal-549010224-line-29)">│</text><text class="terminal-549010224-r2" x="1268.8" y="727.6" textLength="12.2" clip-path="url(#terminal-549010224-line-29)">│</text><text class="terminal-549010224-r1" x="1952" y="727.6" textLength="12.2" clip-path="url(#terminal-549010224-line-29)">
</text><text class="terminal-549010224-r2" x="671" y="752" textLength="12.2" clip-path="url(#terminal-549010224-line-30)">│</text><text class="terminal-549010224-r2" x="1268.8" y="752" textLength="12.2" clip-path="url(#terminal-549010224-line-30)">│</text><text class="terminal-549010224-r1" x="1952" y="752" textLength="12.2" clip-path="url(#terminal-549010224-line-30)">
</text><text class="terminal-549010224-r2" x="671" y="776.4" textLength="12.2" clip-path="url(#terminal-549010224-line-31)">│</text><text class="terminal-549010224-r2" x="1268.8" y="776.4" textLength="12.2" clip-path="url(#terminal-549010224-line-31)">│</text><text class="terminal-549010224-r1" x="1952" y="776.4" textLength="12.2" clip-path="url(#terminal-549010224-line-31)">
</text><text class="terminal-549010224-r2" x="671" y="800.8" textLength="12.2" clip-path="url(#terminal-549010224-line-32)">│</text><text class="terminal-549010224-r2" x="1268.8" y="800.8" textLength="12.2" clip-path="url(#terminal-549010224-line-32)">│</text><text class="terminal-549010224-r1" x="1952" y="800.8" textLength="12.2" clip-path="url(#terminal-549010224-line-32)">
</text><text class="terminal-549010224-r2" x="671" y="825.2" textLength="12.2" clip-path="url(#terminal-549010224-line-33)">│</text><text class="terminal-549010224-r2" x="1268.8" y="825.2" textLength="12.2" clip-path="url(#terminal-549010224-line-33)">│</text><text class="terminal-549010224-r1" x="1952" y="825.2" textLength="12.2" clip-path="url(#terminal-549010224-line-33)">
</text><text class="terminal-549010224-r2" x="671" y="849.6" textLength="12.2" clip-path="url(#terminal-549010224-line-34)">└</text><text class="terminal-549010224-r2" x="683.2" y="849.6" textLength="585.6" clip-path="url(#terminal-549010224-line-34)">────────────────────────────────────────────────</text><text class="terminal-549010224-r2" x="1268.8" y="849.6" textLength="12.2" clip-path="url(#terminal-549010224-line-34)">┘</text><text class="terminal-549010224-r1" x="1952" y="849.6" textLength="12.2" clip-path="url(#terminal-549010224-line-34)">
</text><text class="terminal-549010224-r1" x="1952" y="874" textLength="12.2" clip-path="url(#terminal-549010224-line-35)">
</text><text class="terminal-549010224-r1" x="1952" y="898.4" textLength="12.2" clip-path="url(#terminal-549010224-line-36)">
</text><text class="terminal-549010224-r1" x="1952" y="922.8" textLength="12.2" clip-path="url(#terminal-549010224-line-37)">
</text><text class="terminal-549010224-r1" x="1952" y="947.2" textLength="12.2" clip-path="url(#terminal-549010224-line-38)">
</text><text class="terminal-549010224-r1" x="1952" y="971.6" textLength="12.2" clip-path="url(#terminal-549010224-line-39)">
</text><text class="terminal-549010224-r1" x="1952" y="996" textLength="12.2" clip-path="url(#terminal-549010224-line-40)">
</text><text class="terminal-549010224-r1" x="1952" y="1020.4" textLength="12.2" clip-path="url(#terminal-549010224-line-41)">
</text><text class="terminal-549010224-r1" x="1952" y="1044.8" textLength="12.2" clip-path="url(#terminal-549010224-line-42)">
</text><text class="terminal-549010224-r1" x="1952" y="1069.2" textLength="12.2" clip-path="url(#terminal-549010224-line-43)">
</text><text class="terminal-549010224-r1" x="1952" y="1093.6" textLength="12.2" clip-path="url(#terminal-549010224-line-44)">
</text><text class="terminal-549010224-r1" x="1952" y="1118" textLength="12.2" clip-path="url(#terminal-549010224-line-45)">
</text><text class="terminal-549010224-r1" x="1952" y="1142.4" textLength="12.2" clip-path="url(#terminal-549010224-line-46)">
</text>
    </g>
    </g>
</svg>
