<svg class="rich-terminal" viewBox="0 0 1970 1221.1999999999998" xmlns="http://www.w3.org/2000/svg">
    <!-- Generated with Rich https://www.textualize.io -->
    <style>

    @font-face {
        font-family: "Fira Code";
        src: local("FiraCode-Regular"),
                url("https://cdnjs.cloudflare.com/ajax/libs/firacode/6.2.0/woff2/FiraCode-Regular.woff2") format("woff2"),
                url("https://cdnjs.cloudflare.com/ajax/libs/firacode/6.2.0/woff/FiraCode-Regular.woff") format("woff");
        font-style: normal;
        font-weight: 400;
    }
    @font-face {
        font-family: "Fira Code";
        src: local("FiraCode-Bold"),
                url("https://cdnjs.cloudflare.com/ajax/libs/firacode/6.2.0/woff2/FiraCode-Bold.woff2") format("woff2"),
                url("https://cdnjs.cloudflare.com/ajax/libs/firacode/6.2.0/woff/FiraCode-Bold.woff") format("woff");
        font-style: bold;
        font-weight: 700;
    }

    .terminal-2489453320-matrix {
        font-family: Fira Code, monospace;
        font-size: 20px;
        line-height: 24.4px;
        font-variant-east-asian: full-width;
    }

    .terminal-2489453320-title {
        font-size: 18px;
        font-weight: bold;
        font-family: arial;
    }

    .terminal-2489453320-r1 { fill: #c5c8c6 }
.terminal-2489453320-r2 { fill: #e8e4df }
.terminal-2489453320-r3 { fill: #e8e4df;font-weight: bold }
.terminal-2489453320-r4 { fill: #a6a6a6 }
.terminal-2489453320-r5 { fill: #797979 }
.terminal-2489453320-r6 { fill: #d4a84b;font-weight: bold }
.terminal-2489453320-r7 { fill: #464544 }
    </style>

    <defs>
    <clipPath id="terminal-2489453320-clip-terminal">
      <rect x="0" y="0" width="1951.0" height="1170.1999999999998" />
    </clipPath>
    <clipPath id="terminal-2489453320-line-0">
    <rect x="0" y="1.5" width="1952" height="24.65"/>
            </clipPath>
<clipPath id="terminal-2489453320-line-1">
    <rect x="0" y="25.9" width="1952" height="24.65"/>
            </clipPath>
<clipPath id="terminal-2489453320-line-2">
    <rect x="0" y="50.3" width="1952" height="24.65"/>
            </clipPath>
<clipPath id="terminal-2489453320-line-3">
    <rect x="0" y="74.7" width="1952" height="24.65"/>
            </clipPath>
<clipPath id="terminal-2489453320-line-4">
    <rect x="0" y="99.1" width="1952" height="24.65"/>
            </clipPath>
<clipPath id="terminal-2489453320-line-5">
    <rect x="0" y="123.5" width="1952" height="24.65"/>
            </clipPath>
<clipPath id="terminal-2489453320-line-6">
    <rect x="0" y="147.9" width="1952" height="24.65"/>
            </clipPath>
<clipPath id="terminal-2489453320-line-7">
    <rect x="0" y="172.3" width="1952" height="24.65"/>
            </clipPath>
<clipPath id="terminal-2489453320-line-8">
    <rect x="0" y="196.7" width="1952" height="24.65"/>
            </clipPath>
<clipPath id="terminal-2489453320-line-9">
    <rect x="0" y="221.1" width="1952" height="24.65"/>
            </clipPath>
<clipPath id="terminal-2489453320-line-10">
    <rect x="0" y="245.5" width="1952" height="24.65"/>
            </clipPath>
<clipPath id="terminal-2489453320-line-11">
    <rect x="0" y="269.9" width="1952" height="24.65"/>
            </clipPath>
<clipPath id="terminal-2489453320-line-12">
    <rect x="0" y="294.3" width="1952" height="24.65"/>
            </clipPath>
<clipPath id="terminal-2489453320-line-13">
    <rect x="0" y="318.7" width="1952" height="24.65"/>
            </clipPath>
<clipPath id="terminal-2489453320-line-14">
    <rect x="0" y="343.1" width="1952" height="24.65"/>
            </clipPath>
<clipPath id="terminal-2489453320-line-15">
    <rect x="0" y="367.5" width="1952" height="24.65"/>
            </clipPath>
<clipPath id="terminal-2489453320-line-16">
    <rect x="0" y="391.9" width="1952" height="24.65"/>
            </clipPath>
<clipPath id="terminal-2489453320-line-17">
    <rect x="0" y="416.3" width="1952" height="24.65"/>
            </clipPath>
<clipPath id="terminal-2489453320-line-18">
    <rect x="0" y="440.7" width="1952" height="24.65"/>
            </clipPath>
<clipPath id="terminal-2489453320-line-19">
    <rect x="0" y="465.1" width="1952" height="24.65"/>
            </clipPath>
<clipPath id="terminal-2489453320-line-20">
    <rect x="0" y="489.5" width="1952" height="24.65"/>
            </clipPath>
<clipPath id="terminal-2489453320-line-21">
    <rect x="0" y="513.9" width="1952" height="24.65"/>
            </clipPath>
<clipPath id="terminal-2489453320-line-22">
    <rect x="0" y="538.3" width="1952" height="24.65"/>
            </clipPath>
<clipPath id="terminal-2489453320-line-23">
    <rect x="0" y="562.7" width="1952" height="24.65"/>
            </clipPath>
<clipPath id="terminal-2489453320-line-24">
    <rect x="0" y="587.1" width="1952" height="24.65"/>
            </clipPath>
<clipPath id="terminal-2489453320-line-25">
    <rect x="0" y="611.5" width="1952" height="24.65"/>
            </clipPath>
<clipPath id="terminal-2489453320-line-26">
    <rect x="0" y="635.9" width="1952" height="24.65"/>
            </clipPath>
<clipPath id="terminal-2489453320-line-27">
    <rect x="0" y="660.3" width="1952" height="24.65"/>
            </clipPath>
<clipPath id="terminal-2489453320-line-28">
    <rect x="0" y="684.7" width="1952" height="24.65"/>
            </clipPath>
<clipPath id="terminal-2489453320-line-29">
    <rect x="0" y="709.1" width="1952" height="24.65"/>
            </clipPath>
<clipPath id="terminal-2489453320-line-30">
    <rect x="0" y="733.5" width="1952" height="24.65"/>
            </clipPath>
<clipPath id="terminal-2489453320-line-31">
    <rect x="0" y="757.9" width="1952" height="24.65"/>
            </clipPath>
<clipPath id="terminal-2489453320-line-32">
    <rect x="0" y="782.3" width="1952" height="24.65"/>
            </clipPath>
<clipPath id="terminal-2489453320-line-33">
    <rect x="0" y="806.7" width="1952" height="24.65"/>
            </clipPath>
<clipPath id="terminal-2489453320-line-34">
    <rect x="0" y="831.1" width="1952" height="24.65"/>
            </clipPath>
<clipPath id="terminal-2489453320-line-35">
    <rect x="0" y="855.5" width="1952" height="24.65"/>
            </clipPath>
<clipPath id="terminal-2489453320-line-36">
    <rect x="0" y="879.9" width="1952" height="24.65"/>
            </clipPath>
<clipPath id="terminal-2489453320-line-37">
    <rect x="0" y="904.3" width="1952" height="24.65"/>
            </clipPath>
<clipPath id="terminal-2489453320-line-38">
    <rect x="0" y="928.7" width="1952" height="24.65"/>
            </clipPath>
<clipPath id="terminal-2489453320-line-39">
    <rect x="0" y="953.1" width="1952" height="24.65"/>
            </clipPath>
<clipPath id="terminal-2489453320-line-40">
    <rect x="0" y="977.5" width="1952" height="24.65"/>
            </clipPath>
<clipPath id="terminal-2489453320-line-41">
    <rect x="0" y="1001.9" width="1952" height="24.65"/>
            </clipPath>
<clipPath id="terminal-2489453320-line-42">
    <rect x="0" y="1026.3" width="1952" height="24.65"/>
            </clipPath>
<clipPath id="terminal-2489453320-line-43">
    <rect x="0" y="1050.7" width="1952" height="24.65"/>
            </clipPath>
<clipPath id="terminal-2489453320-line-44">
    <rect x="0" y="1075.1" width="1952" height="24.65"/>
            </clipPath>
<clipPath id="terminal-2489453320-line-45">
    <rect x="0" y="1099.5" width="1952" height="24.65"/>
            </clipPath>
<clipPath id="terminal-2489453320-line-46">
    <rect x="0" y="1123.9" width="1952" height="24.65"/>
            </clipPath>
    </defs>

    <rect fill="#292929" stroke="rgba(255,255,255,0.35)" stroke-width="1" x="1" y="1" width="1968" height="1219.2" rx="8"/><text class="terminal-2489453320-title" fill="#c5c8c6" text-anchor="middle" x="984" y="27">GKL&#160;—&#160;Fantasy&#160;Baseball&#160;Command&#160;Center</text>
            <g transform="translate(26,22)">
            <circle cx="0" cy="0" r="7" fill="#ff5f57"/>
            <circle cx="22" cy="0" r="7" fill="#febc2e"/>
            <circle cx="44" cy="0" r="7" fill="#28c840"/>
            </g>
        
    <g transform="translate(9, 41)" clip-path="url(#terminal-2489453320-clip-terminal)">
    <rect fill="#1e1e1e" x="0" y="1.5" width="12.2" height="24.65" shape-rendering="crispEdges"/><rect fill="#1e1e1e" x="12.2" y="1.5" width="12.2" height="24.65" shape-rendering="crispEdges"/><rect fill="#1e1e1e" x="24.4" y="1.5" width="61" height="24.65" shape-rendering="crispEdges"/><rect fill="#1e1e1e" x="85.4" y="1.5" width="12.2" height="24.65" shape-rendering="crispEdges"/><rect fill="#1e1e1e" x="97.6" y="1.5" width="634.4" height="24.65" shape-rendering="crispEdges"/><rect fill="#1e1e1e" x="732" y="1.5" width="451.4" height="24.65" shape-rendering="crispEdges"/><rect fill="#1e1e1e" x="1183.4" y="1.5" width="646.6" height="24.65" shape-rendering="crispEdges"/><rect fill="#1e1e1e" x="1830" y="1.5" width="12.2" height="24.65" shape-rendering="crispEdges"/><rect fill="#1e1e1e" x="1842.2" y="1.5" width="0" height="24.65" shape-rendering="crispEdges"/><rect fill="#1e1e1e" x="1842.2" y="1.5" width="97.6" height="24.65" shape-rendering="crispEdges"/><rect fill="#1e1e1e" x="1939.8" y="1.5" width="12.2" height="24.65" shape-rendering="crispEdges"/><rect fill="#4a7c59" x="0" y="25.9" width="744.2" height="24.65" shape-rendering="crispEdges"/><rect fill="#4a7c59" x="744.2" y="25.9" width="463.6" height="24.65" shape-rendering="crispEdges"/><rect fill="#4a7c59" x="1207.8" y="25.9" width="744.2" height="24.65" shape-rendering="crispEdges"/><rect fill="#222222" x="0" y="50.3" width="683.2" height="24.65" shape-rendering="crispEdges"/><rect fill="#222222" x="683.2" y="50.3" width="573.4" height="24.65" shape-rendering="crispEdges"/><rect fill="#222222" x="1256.6" y="50.3" width="695.4" height="24.65" shape-rendering="crispEdges"/><rect fill="#181818" x="0" y="74.7" width="317.2" height="24.65" shape-rendering="crispEdges"/><rect fill="#181818" x="317.2" y="74.7" width="1634.8" height="24.65" shape-rendering="crispEdges"/><rect fill="#181818" x="0" y="99.1" width="97.6" height="24.65" shape-rendering="crispEdges"/><rect fill="#181818" x="97.6" y="99.1" width="622.2" height="24.65" shape-rendering="crispEdges"/><rect fill="#181818" x="719.8" y="99.1" width="1232.2" height="24.65" shape-rendering="crispEdges"/><rect fill="#181818" x="0" y="123.5" width="0" height="24.65" shape-rendering="crispEdges"/><rect fill="#181818" x="0" y="123.5" width="1952" height="24.65" shape-rendering="crispEdges"/><rect fill="#181818" x="0" y="147.9" width="1952" height="24.65" shape-rendering="crispEdges"/><rect fill="#181818" x="0" y="172.3" width="1952" height="24.65" shape-rendering="crispEdges"/><rect fill="#181818" x="0" y="196.7" width="1952" height="24.65" shape-rendering="crispEdges"/><rect fill="#181818" x="0" y="221.1" width="1952" height="24.65" shape-rendering="crispEdges"/><rect fill="#181818" x="0" y="245.5" width="1952" height="24.65" shape-rendering="crispEdges"/><rect fill="#181818" x="0" y="269.9" width="1952" height="24.65" shape-rendering="crispEdges"/><rect fill="#181818" x="0" y="294.3" width="1952" height="24.65" shape-rendering="crispEdges"/><rect fill="#181818" x="0" y="318.7" width="1952" height="24.65" shape-rendering="crispEdges"/><rect fill="#181818" x="0" y="343.1" width="1952" height="24.65" shape-rendering="crispEdges"/><rect fill="#181818" x="0" y="367.5" width="1952" height="24.65" shape-rendering="crispEdges"/><rect fill="#181818" x="0" y="391.9" width="1952" height="24.65" shape-rendering="crispEdges"/><rect fill="#181818" x="0" y="416.3" width="1952" height="24.65" shape-rendering="crispEdges"/><rect fill="#181818" x="0" y="440.7" width="1952" height="24.65" shape-rendering="crispEdges"/><rect fill="#181818" x="0" y="465.1" width="1952" height="24.65" shape-rendering="crispEdges"/><rect fill="#181818" x="0" y="489.5" width="1952" height="24.65" shape-rendering="crispEdges"/><rect fill="#181818" x="0" y="513.9" width="1952" height="24.65" shape-rendering="crispEdges"/><rect fill="#181818" x="0" y="538.3" width="1952" height="24.65" shape-rendering="crispEdges"/><rect fill="#181818" x="0" y="562.7" width="1952" height="24.65" shape-rendering="crispEdges"/><rect fill="#181818" x="0" y="587.1" width="1952" height="24.65" shape-rendering="crispEdges"/><rect fill="#181818" x="0" y="611.5" width="1952" height="24.65" shape-rendering="crispEdges"/><rect fill="#181818" x="0" y="635.9" width="1952" height="24.65" shape-rendering="crispEdges"/><rect fill="#181818" x="0" y="660.3" width="1952" height="24.65" shape-rendering="crispEdges"/><rect fill="#181818" x="0" y="684.7" width="1952" height="24.65" shape-rendering="crispEdges"/><rect fill="#181818" x="0" y="709.1" width="1952" height="24.65" shape-rendering="crispEdges"/><rect fill="#181818" x="0" y="733.5" width="1952" height="24.65" shape-rendering="crispEdges"/><rect fill="#181818" x="0" y="757.9" width="1952" height="24.65" shape-rendering="crispEdges"/><rect fill="#181818" x="0" y="782.3" width="1952" height="24.65" shape-rendering="crispEdges"/><rect fill="#181818" x="0" y="806.7" width="1952" height="24.65" shape-rendering="crispEdges"/><rect fill="#181818" x="0" y="831.1" width="1952" height="24.65" shape-rendering="crispEdges"/><rect fill="#181818" x="0" y="855.5" width="1952" height="24.65" shape-rendering="crispEdges"/><rect fill="#181818" x="0" y="879.9" width="1952" height="24.65" shape-rendering="crispEdges"/><rect fill="#181818" x="0" y="904.3" width="1952" height="24.65" shape-rendering="crispEdges"/><rect fill="#181818" x="0" y="928.7" width="1952" height="24.65" shape-rendering="crispEdges"/><rect fill="#181818" x="0" y="953.1" width="1952" height="24.65" shape-rendering="crispEdges"/><rect fill="#181818" x="0" y="977.5" width="1952" height="24.65" shape-rendering="crispEdges"/><rect fill="#181818" x="0" y="1001.9" width="1952" height="24.65" shape-rendering="crispEdges"/><rect fill="#181818" x="0" y="1026.3" width="1952" height="24.65" shape-rendering="crispEdges"/><rect fill="#181818" x="0" y="1050.7" width="1952" height="24.65" shape-rendering="crispEdges"/><rect fill="#181818" x="0" y="1075.1" width="1952" height="24.65" shape-rendering="crispEdges"/><rect fill="#181818" x="0" y="1099.5" width="1952" height="24.65" shape-rendering="crispEdges"/><rect fill="#181818" x="0" y="1123.9" width="1952" height="24.65" shape-rendering="crispEdges"/><rect fill="#1e1e1e" x="0" y="1148.3" width="61" height="24.65" shape-rendering="crispEdges"/><rect fill="#1e1e1e" x="61" y="1148.3" width="61" height="24.65" shape-rendering="crispEdges"/><rect fill="#1e1e1e" x="122" y="1148.3" width="36.6" height="24.65" shape-rendering="crispEdges"/><rect fill="#1e1e1e" x="158.6" y="1148.3" width="97.6" height="24.65" shape-rendering="crispEdges"/><rect fill="#1e1e1e" x="256.2" y="1148.3" width="36.6" height="24.65" shape-rendering="crispEdges"/><rect fill="#1e1e1e" x="292.8" y="1148.3" width="85.4" height="24.65" shape-rendering="crispEdges"/><rect fill="#1e1e1e" x="378.2" y="1148.3" width="36.6" height="24.65" shape-rendering="crispEdges"/><rect fill="#1e1e1e" x="414.8" y="1148.3" width="170.8" height="24.65" shape-rendering="crispEdges"/><rect fill="#1e1e1e" x="585.6" y="1148.3" width="1220" height="24.65" shape-rendering="crispEdges"/><rect fill="#1e1e1e" x="1805.6" y="1148.3" width="12.2" height="24.65" shape-rendering="crispEdges"/><rect fill="#1e1e1e" x="1817.8" y="1148.3" width="24.4" height="24.65" shape-rendering="crispEdges"/><rect fill="#1e1e1e" x="1842.2" y="1148.3" width="97.6" height="24.65" shape-rendering="crispEdges"/><rect fill="#1e1e1e" x="1939.8" y="1148.3" width="12.2" height="24.65" shape-rendering="crispEdges"/>
    <g class="terminal-2489453320-matrix">
    <text class="terminal-2489453320-r2" x="12.2" y="20" textLength="12.2" clip-path="url(#terminal-2489453320-line-0)">⭘</text><text class="terminal-2489453320-r2" x="732" y="20" textLength="451.4" clip-path="url(#terminal-2489453320-line-0)">GKL&#160;—&#160;Fantasy&#160;Baseball&#160;Command&#160;Center</text><text class="terminal-2489453320-r1" x="1952" y="20" textLength="12.2" clip-path="url(#terminal-2489453320-line-0)">
</text><text class="terminal-2489453320-r3" x="744.2" y="44.4" textLength="463.6" clip-path="url(#terminal-2489453320-line-1)">&#160;The&#160;Golden&#160;Knight&#160;Lounge&#160;—&#160;Watchlist&#160;</text><text class="terminal-2489453320-r1" x="1952" y="44.4" textLength="12.2" clip-path="url(#terminal-2489453320-line-1)">
</text><text class="terminal-2489453320-r5" x="683.2" y="68.8" textLength="573.4" clip-path="url(#terminal-2489453320-line-2)">&#160;&#160;[c]&#160;Compare&#160;to&#160;roster&#160;&#160;[d]&#160;Remove&#160;&#160;[Esc]&#160;Back</text><text class="terminal-2489453320-r1" x="1952" y="68.8" textLength="12.2" clip-path="url(#terminal-2489453320-line-2)">
</text><text class="terminal-2489453320-r2" x="0" y="93.2" textLength="317.2" clip-path="url(#terminal-2489453320-line-3)">&#160;&#160;No&#160;players&#160;on&#160;watchlist.</text><text class="terminal-2489453320-r1" x="1952" y="93.2" textLength="12.2" clip-path="url(#terminal-2489453320-line-3)">
</text><text class="terminal-2489453320-r2" x="0" y="117.6" textLength="97.6" clip-path="url(#terminal-2489453320-line-4)">&#160;&#160;Press&#160;</text><text class="terminal-2489453320-r2" x="97.6" y="117.6" textLength="622.2" clip-path="url(#terminal-2489453320-line-4)">&#160;on&#160;a&#160;player&#160;in&#160;the&#160;Free&#160;Agents&#160;screen&#160;to&#160;add&#160;them.</text><text class="terminal-2489453320-r1" x="1952" y="117.6" textLength="12.2" clip-path="url(#terminal-2489453320-line-4)">
</text><text class="terminal-2489453320-r1" x="1952" y="142" textLength="12.2" clip-path="url(#terminal-2489453320-line-5)">
</text><text class="terminal-2489453320-r1" x="1952" y="166.4" textLength="12.2" clip-path="url(#terminal-2489453320-line-6)">
</text><text class="terminal-2489453320-r1" x="1952" y="190.8" textLength="12.2" clip-path="url(#terminal-2489453320-line-7)">
</text><text class="terminal-2489453320-r1" x="1952" y="215.2" textLength="12.2" clip-path="url(#terminal-2489453320-line-8)">
</text><text class="terminal-2489453320-r1" x="1952" y="239.6" textLength="12.2" clip-path="url(#terminal-2489453320-line-9)">
</text><text class="terminal-2489453320-r1" x="1952" y="264" textLength="12.2" clip-path="url(#terminal-2489453320-line-10)">
</text><text class="terminal-2489453320-r1" x="1952" y="288.4" textLength="12.2" clip-path="url(#terminal-2489453320-line-11)">
</text><text class="terminal-2489453320-r1" x="1952" y="312.8" textLength="12.2" clip-path="url(#terminal-2489453320-line-12)">
</text><text class="terminal-2489453320-r1" x="1952" y="337.2" textLength="12.2" clip-path="url(#terminal-2489453320-line-13)">
</text><text class="terminal-2489453320-r1" x="1952" y="361.6" textLength="12.2" clip-path="url(#terminal-2489453320-line-14)">
</text><text class="terminal-2489453320-r1" x="1952" y="386" textLength="12.2" clip-path="url(#terminal-2489453320-line-15)">
</text><text class="terminal-2489453320-r1" x="1952" y="410.4" textLength="12.2" clip-path="url(#terminal-2489453320-line-16)">
</text><text class="terminal-2489453320-r1" x="1952" y="434.8" textLength="12.2" clip-path="url(#terminal-2489453320-line-17)">
</text><text class="terminal-2489453320-r1" x="1952" y="459.2" textLength="12.2" clip-path="url(#terminal-2489453320-line-18)">
</text><text class="terminal-2489453320-r1" x="1952" y="483.6" textLength="12.2" clip-path="url(#terminal-2489453320-line-19)">
</text><text class="terminal-2489453320-r1" x="1952" y="508" textLength="12.2" clip-path="url(#terminal-2489453320-line-20)">
</text><text class="terminal-2489453320-r1" x="1952" y="532.4" textLength="12.2" clip-path="url(#terminal-2489453320-line-21)">
</text><text class="terminal-2489453320-r1" x="1952" y="556.8" textLength="12.2" clip-path="url(#terminal-2489453320-line-22)">
</text><text class="terminal-2489453320-r1" x="1952" y="581.2" textLength="12.2" clip-path="url(#terminal-2489453320-line-23)">
</text><text class="terminal-2489453320-r1" x="1952" y="605.6" textLength="12.2" clip-path="url(#terminal-2489453320-line-24)">
</text><text class="terminal-2489453320-r1" x="1952" y="630" textLength="12.2" clip-path="url(#terminal-2489453320-line-25)">
</text><text class="terminal-2489453320-r1" x="1952" y="654.4" textLength="12.2" clip-path="url(#terminal-2489453320-line-26)">
</text><text class="terminal-2489453320-r1" x="1952" y="678.8" textLength="12.2" clip-path="url(#terminal-2489453320-line-27)">
</text><text class="terminal-2489453320-r1" x="1952" y="703.2" textLength="12.2" clip-path="url(#terminal-2489453320-line-28)">
</text><text class="terminal-2489453320-r1" x="1952" y="727.6" textLength="12.2" clip-path="url(#terminal-2489453320-line-29)">
</text><text class="terminal-2489453320-r1" x="1952" y="752" textLength="12.2" clip-path="url(#terminal-2489453320-line-30)">
</text><text class="terminal-2489453320-r1" x="1952" y="776.4" textLength="12.2" clip-path="url(#terminal-2489453320-line-31)">
</text><text class="terminal-2489453320-r1" x="1952" y="800.8" textLength="12.2" clip-path="url(#terminal-2489453320-line-32)">
</text><text class="terminal-2489453320-r1" x="1952" y="825.2" textLength="12.2" clip-path="url(#terminal-2489453320-line-33)">
</text><text class="terminal-2489453320-r1" x="1952" y="849.6" textLength="12.2" clip-path="url(#terminal-2489453320-line-34)">
</text><text class="terminal-2489453320-r1" x="1952" y="874" textLength="12.2" clip-path="url(#terminal-2489453320-line-35)">
</text><text class="terminal-2489453320-r1" x="1952" y="898.4" textLength="12.2" clip-path="url(#terminal-2489453320-line-36)">
</text><text class="terminal-2489453320-r1" x="1952" y="922.8" textLength="12.2" clip-path="url(#terminal-2489453320-line-37)">
</text><text class="terminal-2489453320-r1" x="1952" y="947.2" textLength="12.2" clip-path="url(#terminal-2489453320-line-38)">
</text><text class="terminal-2489453320-r1" x="1952" y="971.6" textLength="12.2" clip-path="url(#terminal-2489453320-line-39)">
</text><text class="terminal-2489453320-r1" x="1952" y="996" textLength="12.2" clip-path="url(#terminal-2489453320-line-40)">
</text><text class="terminal-2489453320-r1" x="1952" y="1020.4" textLength="12.2" clip-path="url(#terminal-2489453320-line-41)">
</text><text class="terminal-2489453320-r1" x="1952" y="1044.8" textLength="12.2" clip-path="url(#terminal-2489453320-line-42)">
</text><text class="terminal-2489453320-r1" x="1952" y="1069.2" textLength="12.2" clip-path="url(#terminal-2489453320-line-43)">
</text><text class="terminal-2489453320-r1" x="1952" y="1093.6" textLength="12.2" clip-path="url(#terminal-2489453320-line-44)">
</text><text class="terminal-2489453320-r1" x="1952" y="1118" textLength="12.2" clip-path="url(#terminal-2489453320-line-45)">
</text><text class="terminal-2489453320-r1" x="1952" y="1142.4" textLength="12.2" clip-path="url(#terminal-2489453320-line-46)">
</text><text class="terminal-2489453320-r6" x="0" y="1166.8" textLength="61" clip-path="url(#terminal-2489453320-line-47)">&#160;esc&#160;</text><text class="terminal-2489453320-r2" x="61" y="1166.8" textLength="61" clip-path="url(#terminal-2489453320-line-47)">Back&#160;</text><text class="terminal-2489453320-r6" x="122" y="1166.8" textLength="36.6" clip-path="url(#terminal-2489453320-line-47)">&#160;c&#160;</text><text class="terminal-2489453320-r2" x="158.6" y="1166.8" textLength="97.6" clip-path="url(#terminal-2489453320-line-47)">Compare&#160;</text><text class="terminal-2489453320-r6" x="256.2" y="1166.8" textLength="36.6" clip-path="url(#terminal-2489453320-line-47)">&#160;d&#160;</text><text class="terminal-2489453320-r2" x="292.8" y="1166.8" textLength="85.4" clip-path="url(#terminal-2489453320-line-47)">Remove&#160;</text><text class="terminal-2489453320-r6" x="378.2" y="1166.8" textLength="36.6" clip-path="url(#terminal-2489453320-line-47)">&#160;i&#160;</text><text class="terminal-2489453320-r2" x="414.8" y="1166.8" textLength="170.8" clip-path="url(#terminal-2489453320-line-47)">Player&#160;Detail&#160;</text><text class="terminal-2489453320-r7" x="1805.6" y="1166.8" textLength="12.2" clip-path="url(#terminal-2489453320-line-47)">▏</text><text class="terminal-2489453320-r6" x="1817.8" y="1166.8" textLength="24.4" clip-path="url(#terminal-2489453320-line-47)">^p</text><text class="terminal-2489453320-r2" x="1842.2" y="1166.8" textLength="97.6" clip-path="url(#terminal-2489453320-line-47)">&#160;palette</text>
    </g>
    </g>
</svg>
